<?xml version="1.0" encoding="utf-8" ?>
<svg baseProfile="tiny" height="210mm" version="1.2" viewBox="0 0 297 210" width="297mm" xmlns="http://www.w3.org/2000/svg" xmlns:ev="http://www.w3.org/2001/xml-events" xmlns:xlink="http://www.w3.org/1999/xlink"><defs /><line stroke="black" stroke-width="0.1" x1="182.48" x2="181.56441128" y1="9.92535448" y2="9.83574836" /><line stroke="black" stroke-width="0.1" x1="181.56441128" x2="179.67622608" y1="9.83574836" y2="9.64661488" /><line stroke="black" stroke-width="0.1" x1="179.67622608" x2="177.55339568" y1="9.64661488" y2="9.43921372" /><line stroke="black" stroke-width="0.1" x1="177.55339568" x2="175.3965496" y1="9.43921372" y2="9.23212752" /><line stroke="black" stroke-width="0.1" x1="175.3965496" x2="173.23734132" y1="9.23212752" y2="9.03023816" /><line stroke="black" stroke-width="0.1" x1="173.23734132" x2="171.07325116" y1="9.03023816" y2="8.83181336" /><line stroke="black" stroke-width="0.1" x1="171.07325116" x2="168.90695628" y1="8.83181336" y2="8.63559328" /><line stroke="black" stroke-width="0.1" x1="168.90695628" x2="166.74003148" y1="8.63559328" y2="8.44142044" /><line stroke="black" stroke-width="0.1" x1="166.74003148" x2="164.57342164" y1="8.44142044" y2="8.24945232" /><line stroke="black" stroke-width="0.1" x1="164.57342164" x2="162.4068118" y1="8.24945232" y2="8.06000388" /><line stroke="black" stroke-width="0.1" x1="162.4068118" x2="160.24051692" y1="8.06000388" y2="7.87291764" /><line stroke="black" stroke-width="0.1" x1="160.24051692" x2="158.07359212" y1="7.87291764" y2="7.68835108" /><line stroke="black" stroke-width="0.1" x1="158.07359212" x2="155.90556496" y1="7.68835108" y2="7.50598924" /><line stroke="black" stroke-width="0.1" x1="155.90556496" x2="153.73722284" y1="7.50598924" y2="7.32567464" /><line stroke="black" stroke-width="0.1" x1="153.73722284" x2="151.56840828" y1="7.32567464" y2="7.14709232" /><line stroke="black" stroke-width="0.1" x1="151.56840828" x2="149.3989638" y1="7.14709232" y2="6.97039976" /><line stroke="black" stroke-width="0.1" x1="149.3989638" x2="147.22951932" y1="6.97039976" y2="6.79512452" /><line stroke="black" stroke-width="0.1" x1="147.22951932" x2="145.06007484" y1="6.79512452" y2="6.62173904" /><line stroke="black" stroke-width="0.1" x1="145.06007484" x2="142.89047288" y1="6.62173904" y2="6.45024332" /><line stroke="black" stroke-width="0.1" x1="142.89047288" x2="140.7210284" y1="6.45024332" y2="6.28047988" /><line stroke="black" stroke-width="0.1" x1="140.7210284" x2="138.55158392" y1="6.28047988" y2="6.1126062" /><line stroke="black" stroke-width="0.1" x1="138.55158392" x2="136.38182448" y1="6.1126062" y2="5.94677976" /><line stroke="black" stroke-width="0.1" x1="136.38182448" x2="134.21253748" y1="5.94677976" y2="5.78300056" /><line stroke="black" stroke-width="0.1" x1="134.21253748" x2="132.04340796" y1="5.78300056" y2="5.6212686" /><line stroke="black" stroke-width="0.1" x1="132.04340796" x2="129.873806" y1="5.6212686" y2="5.46189884" /><line stroke="black" stroke-width="0.1" x1="129.873806" x2="127.70467648" y1="5.46189884" y2="5.3047338" /><line stroke="black" stroke-width="0.1" x1="127.70467648" x2="125.53586192" y1="5.3047338" y2="5.15024592" /><line stroke="black" stroke-width="0.1" x1="125.53586192" x2="123.36688988" y1="5.15024592" y2="4.99812024" /><line stroke="black" stroke-width="0.1" x1="123.36688988" x2="121.19807532" y1="4.99812024" y2="4.84898668" /><line stroke="black" stroke-width="0.1" x1="121.19807532" x2="119.02941824" y1="4.84898668" y2="4.70253028" /><line stroke="black" stroke-width="0.1" x1="119.02941824" x2="116.86091864" y1="4.70253028" y2="4.55922348" /><line stroke="black" stroke-width="0.1" x1="116.86091864" x2="114.692734" y1="4.55922348" y2="4.41906628" /><line stroke="black" stroke-width="0.1" x1="114.692734" x2="112.52470684" y1="4.41906628" y2="4.28221616" /><line stroke="black" stroke-width="0.1" x1="112.52470684" x2="110.35699464" y1="4.28221616" y2="4.14898808" /><line stroke="black" stroke-width="0.1" x1="110.35699464" x2="108.18912496" y1="4.14898808" y2="4.01938204" /><line stroke="black" stroke-width="0.1" x1="108.18912496" x2="106.0218852" y1="4.01938204" y2="3.893713" /><line stroke="black" stroke-width="0.1" x1="106.0218852" x2="103.8549604" y1="3.893713" y2="3.77213844" /><line stroke="black" stroke-width="0.1" x1="103.8549604" x2="101.68835056" y1="3.77213844" y2="3.6551308" /><line stroke="black" stroke-width="0.1" x1="101.68835056" x2="99.52221316" y1="3.6551308" y2="3.54237512" /><line stroke="black" stroke-width="0.1" x1="99.52221316" x2="97.35639072" y1="3.54237512" y2="3.43481628" /><line stroke="black" stroke-width="0.1" x1="97.35639072" x2="95.1911982" y1="3.43481628" y2="3.33245428" /><line stroke="black" stroke-width="0.1" x1="95.1911982" x2="93.0266356" y1="3.33245428" y2="3.23576156" /><line stroke="black" stroke-width="0.1" x1="93.0266356" x2="90.86254544" y1="3.23576156" y2="3.1448956" /><line stroke="black" stroke-width="0.1" x1="90.86254544" x2="88.69940016" y1="3.1448956" y2="3.06017136" /><line stroke="black" stroke-width="0.1" x1="88.69940016" x2="86.53656984" y1="3.06017136" y2="2.98237624" /><line stroke="black" stroke-width="0.1" x1="86.53656984" x2="84.37484188" y1="2.98237624" y2="2.91151024" /><line stroke="black" stroke-width="0.1" x1="84.37484188" x2="82.21390132" y1="2.91151024" y2="2.8480458" /><line stroke="black" stroke-width="0.1" x1="82.21390132" x2="80.05406312" y1="2.8480458" y2="2.79261284" /><line stroke="black" stroke-width="0.1" x1="80.05406312" x2="77.89501232" y1="2.79261284" y2="2.7456838" /><line stroke="black" stroke-width="0.1" x1="77.89501232" x2="75.73737884" y1="2.7456838" y2="2.70773112" /><line stroke="black" stroke-width="0.1" x1="75.73737884" x2="73.5810052" y1="2.70773112" y2="2.67938472" /><line stroke="black" stroke-width="0.1" x1="73.5810052" x2="71.42604888" y1="2.67938472" y2="2.66111704" /><line stroke="black" stroke-width="0.1" x1="71.42604888" x2="69.27298232" y1="2.66111704" y2="2.65387296" /><line stroke="black" stroke-width="0.1" x1="69.27298232" x2="67.12149056" y1="2.65387296" y2="2.65812492" /><line stroke="black" stroke-width="0.1" x1="67.12149056" x2="64.97220352" y1="2.65812492" y2="2.67466032" /><line stroke="black" stroke-width="0.1" x1="64.97220352" x2="62.82527868" y1="2.67466032" y2="2.70442404" /><line stroke="black" stroke-width="0.1" x1="62.82527868" x2="60.68134596" y1="2.70442404" y2="2.748046" /><line stroke="black" stroke-width="0.1" x1="60.68134596" x2="58.54040536" y1="2.748046" y2="2.807101" /><line stroke="black" stroke-width="0.1" x1="58.54040536" x2="56.40418916" y1="2.807101" y2="2.88253392" /><line stroke="black" stroke-width="0.1" x1="56.40418916" x2="54.27332728" y1="2.88253392" y2="2.97607704" /><line stroke="black" stroke-width="0.1" x1="54.27332728" x2="52.14813468" y1="2.97607704" y2="3.08962012" /><line stroke="black" stroke-width="0.1" x1="52.14813468" x2="50.03034364" y1="3.08962012" y2="3.22505292" /><line stroke="black" stroke-width="0.1" x1="50.03034364" x2="47.92074156" y1="3.22505292" y2="3.38458016" /><line stroke="black" stroke-width="0.1" x1="47.92074156" x2="45.8212182" y1="3.38458016" y2="3.570879" /><line stroke="black" stroke-width="0.1" x1="45.8212182" x2="43.7346082" y1="3.570879" y2="3.78709904" /><line stroke="black" stroke-width="0.1" x1="43.7346082" x2="41.66327376" y1="3.78709904" y2="4.03654736" /><line stroke="black" stroke-width="0.1" x1="41.66327376" x2="39.61241172" y1="4.03654736" y2="4.32331844" /><line stroke="black" stroke-width="0.1" x1="39.61241172" x2="37.58863624" y1="4.32331844" y2="4.65292408" /><line stroke="black" stroke-width="0.1" x1="37.58863624" x2="35.60013628" y1="4.65292408" y2="5.03166348" /><line stroke="black" stroke-width="0.1" x1="35.60013628" x2="33.66029764" y1="5.03166348" y2="5.46583584" /><line stroke="black" stroke-width="0.1" x1="33.66029764" x2="31.79226988" y1="5.46583584" y2="5.9637876" /><line stroke="black" stroke-width="0.1" x1="31.79226988" x2="30.03432064" y1="5.9637876" y2="6.53008568" /><line stroke="black" stroke-width="0.1" x1="30.03432064" x2="28.460623" y1="6.53008568" y2="7.15638364" /><line stroke="black" stroke-width="0.1" x1="28.460623" x2="27.19196412" y1="7.15638364" y2="7.79354772" /><line stroke="black" stroke-width="0.1" x1="27.19196412" x2="26.31054856" y1="7.79354772" y2="8.35685368" /><line stroke="black" stroke-width="0.1" x1="26.31054856" x2="25.751967" y1="8.35685368" y2="8.81086852" /><line stroke="black" stroke-width="0.1" x1="25.751967" x2="25.4007866" y1="8.81086852" y2="9.17669456" /><line stroke="black" stroke-width="0.1" x1="25.4007866" x2="25.17779492" y1="9.17669456" y2="9.48236324" /><line stroke="black" stroke-width="0.1" x1="25.17779492" x2="25.04692904" y1="9.48236324" y2="9.7496068" /><line stroke="black" stroke-width="0.1" x1="25.04692904" x2="25.0" y1="9.7496068" y2="9.99181104" /><line stroke="black" stroke-width="0.1" x1="182.48" x2="202.48" y1="9.92535448" y2="9.92535448" /><line stroke="black" stroke-width="0.1" x1="202.48" x2="202.48" y1="9.92535448" y2="19.92535448" /><line stroke="black" stroke-width="0.1" x1="202.48" x2="10" y1="19.92535448" y2="19.92535448" /><line stroke="black" stroke-width="0.1" x1="10" x2="10" y1="19.92535448" y2="14.92535448" /><path d="M 25.0,9.99181104 C 20.0 14.99181104, 20.0 14.99181104, 10 14.92535448" fill-opacity="0.0" stroke="black" stroke-width="0.1" /><line stroke="black" stroke-width="0.1" x1="25.0" x2="25.0440944" y1="39.99181104" y2="40.22425152" /><line stroke="black" stroke-width="0.1" x1="25.0440944" x2="25.19936968" y1="40.22425152" y2="40.44913296" /><line stroke="black" stroke-width="0.1" x1="25.19936968" x2="25.46582584" y1="40.44913296" y2="40.65448688" /><line stroke="black" stroke-width="0.1" x1="25.46582584" x2="25.86015576" y1="40.65448688" y2="40.85936836" /><line stroke="black" stroke-width="0.1" x1="25.86015576" x2="26.4519656" y1="40.85936836" y2="41.08566712" /><line stroke="black" stroke-width="0.1" x1="26.4519656" x2="27.38094012" y1="41.08566712" y2="41.3448792" /><line stroke="black" stroke-width="0.1" x1="27.38094012" x2="28.77936252" y1="41.3448792" y2="41.62015424" /><line stroke="black" stroke-width="0.1" x1="28.77936252" x2="30.55841408" y1="41.62015424" y2="41.85968132" /><line stroke="black" stroke-width="0.1" x1="30.55841408" x2="32.5180952" y1="41.85968132" y2="42.03873608" /><line stroke="black" stroke-width="0.1" x1="32.5180952" x2="34.55494152" y1="42.03873608" y2="42.16472008" /><line stroke="black" stroke-width="0.1" x1="34.55494152" x2="36.63289012" y1="42.16472008" y2="42.24755456" /><line stroke="black" stroke-width="0.1" x1="36.63289012" x2="38.7377678" y1="42.24755456" y2="42.2976332" /><line stroke="black" stroke-width="0.1" x1="38.7377678" x2="40.8605982" y1="42.2976332" y2="42.3220426" /><line stroke="black" stroke-width="0.1" x1="40.8605982" x2="42.99555456" y1="42.3220426" y2="42.32613708" /><line stroke="black" stroke-width="0.1" x1="42.99555456" x2="45.13869988" y1="42.32613708" y2="42.31369616" /><line stroke="black" stroke-width="0.1" x1="45.13869988" x2="47.28782944" y1="42.31369616" y2="42.28755448" /><line stroke="black" stroke-width="0.1" x1="47.28782944" x2="49.4416834" y1="42.28755448" y2="42.24944432" /><line stroke="black" stroke-width="0.1" x1="49.4416834" x2="51.59947436" y1="42.24944432" y2="42.20141292" /><line stroke="black" stroke-width="0.1" x1="51.59947436" x2="53.76025744" y1="42.20141292" y2="42.14472012" /><line stroke="black" stroke-width="0.1" x1="53.76025744" x2="55.92324524" y1="42.14472012" y2="42.08078324" /><line stroke="black" stroke-width="0.1" x1="55.92324524" x2="58.08843776" y1="42.08078324" y2="42.01038968" /><line stroke="black" stroke-width="0.1" x1="58.08843776" x2="60.25552004" y1="42.01038968" y2="41.93448432" /><line stroke="black" stroke-width="0.1" x1="60.25552004" x2="62.42417712" y1="41.93448432" y2="41.85385456" /><line stroke="black" stroke-width="0.1" x1="62.42417712" x2="64.594409" y1="41.85385456" y2="41.7692878" /><line stroke="black" stroke-width="0.1" x1="64.594409" x2="66.76590072" y1="41.7692878" y2="41.68141396" /><line stroke="black" stroke-width="0.1" x1="66.76590072" x2="68.93865228" y1="41.68141396" y2="41.590548" /><line stroke="black" stroke-width="0.1" x1="68.93865228" x2="71.11297864" y1="41.590548" y2="41.49747732" /><line stroke="black" stroke-width="0.1" x1="71.11297864" x2="73.28824988" y1="41.49747732" y2="41.40283184" /><line stroke="black" stroke-width="0.1" x1="73.28824988" x2="75.46493844" y1="41.40283184" y2="41.307084" /><line stroke="black" stroke-width="0.1" x1="75.46493844" x2="77.64272936" y1="41.307084" y2="41.21086372" /><line stroke="black" stroke-width="0.1" x1="77.64272936" x2="79.82099272" y1="41.21086372" y2="41.11448596" /><line stroke="black" stroke-width="0.1" x1="79.82099272" x2="81.99846868" y1="41.11448596" y2="41.01826568" /><line stroke="black" stroke-width="0.1" x1="81.99846868" x2="84.1754722" y1="41.01826568" y2="40.92267532" /><line stroke="black" stroke-width="0.1" x1="84.1754722" x2="86.35168832" y1="40.92267532" y2="40.82802984" /><line stroke="black" stroke-width="0.1" x1="86.35168832" x2="88.52727452" y1="40.82802984" y2="40.73432924" /><line stroke="black" stroke-width="0.1" x1="88.52727452" x2="90.70254576" y1="40.73432924" y2="40.64220344" /><line stroke="black" stroke-width="0.1" x1="90.70254576" x2="92.87734456" y1="40.64220344" y2="40.55149496" /><line stroke="black" stroke-width="0.1" x1="92.87734456" x2="95.05167092" y1="40.55149496" y2="40.46267624" /><line stroke="black" stroke-width="0.1" x1="95.05167092" x2="97.22552484" y1="40.46267624" y2="40.37590476" /><line stroke="black" stroke-width="0.1" x1="97.22552484" x2="99.39874884" y1="40.37590476" y2="40.29118052" /><line stroke="black" stroke-width="0.1" x1="99.39874884" x2="101.5715004" y1="40.29118052" y2="40.20913344" /><line stroke="black" stroke-width="0.1" x1="101.5715004" x2="103.74346456" y1="40.20913344" y2="40.129921" /><line stroke="black" stroke-width="0.1" x1="103.74346456" x2="105.91511376" y1="40.129921" y2="40.0535432" /><line stroke="black" stroke-width="0.1" x1="105.91511376" x2="108.08629052" y1="40.0535432" y2="39.98062996" /><line stroke="black" stroke-width="0.1" x1="108.08629052" x2="110.25683736" y1="39.98062996" y2="39.91133876" /><line stroke="black" stroke-width="0.1" x1="110.25683736" x2="112.42706924" y1="39.91133876" y2="39.84582708" /><line stroke="black" stroke-width="0.1" x1="112.42706924" x2="114.59698616" y1="39.84582708" y2="39.7842524" /><line stroke="black" stroke-width="0.1" x1="114.59698616" x2="116.76658812" y1="39.7842524" y2="39.72692968" /><line stroke="black" stroke-width="0.1" x1="116.76658812" x2="118.93587512" y1="39.72692968" y2="39.6740164" /><line stroke="black" stroke-width="0.1" x1="118.93587512" x2="121.10516212" y1="39.6740164" y2="39.62567004" /><line stroke="black" stroke-width="0.1" x1="121.10516212" x2="123.27444912" y1="39.62567004" y2="39.58157564" /><line stroke="black" stroke-width="0.1" x1="123.27444912" x2="125.44373612" y1="39.58157564" y2="39.54204816" /><line stroke="black" stroke-width="0.1" x1="125.44373612" x2="127.61302312" y1="39.54204816" y2="39.5070876" /><line stroke="black" stroke-width="0.1" x1="127.61302312" x2="129.7824676" y1="39.5070876" y2="39.47669396" /><line stroke="black" stroke-width="0.1" x1="129.7824676" x2="131.9517546" y1="39.47669396" y2="39.45086724" /><line stroke="black" stroke-width="0.1" x1="131.9517546" x2="134.12072664" y1="39.45086724" y2="39.42960744" /><line stroke="black" stroke-width="0.1" x1="134.12072664" x2="136.29017112" y1="39.42960744" y2="39.41307204" /><line stroke="black" stroke-width="0.1" x1="136.29017112" x2="138.45945812" y1="39.41307204" y2="39.40110356" /><line stroke="black" stroke-width="0.1" x1="138.45945812" x2="140.62906008" y1="39.40110356" y2="39.39385948" /><line stroke="black" stroke-width="0.1" x1="140.62906008" x2="142.79866204" y1="39.39385948" y2="39.39118232" /><line stroke="black" stroke-width="0.1" x1="142.79866204" x2="144.96810652" y1="39.39118232" y2="39.39322956" /><line stroke="black" stroke-width="0.1" x1="144.96810652" x2="147.13739352" y1="39.39322956" y2="39.39984372" /><line stroke="black" stroke-width="0.1" x1="147.13739352" x2="149.30731044" y1="39.39984372" y2="39.41086732" /><line stroke="black" stroke-width="0.1" x1="149.30731044" x2="151.47738484" y1="39.41086732" y2="39.42645784" /><line stroke="black" stroke-width="0.1" x1="151.47738484" x2="153.64730176" y1="39.42645784" y2="39.44614284" /><line stroke="black" stroke-width="0.1" x1="153.64730176" x2="155.81721868" y1="39.44614284" y2="39.47039476" /><line stroke="black" stroke-width="0.1" x1="155.81721868" x2="157.98760804" y1="39.47039476" y2="39.49889864" /><line stroke="black" stroke-width="0.1" x1="157.98760804" x2="160.15815488" y1="39.49889864" y2="39.531497" /><line stroke="black" stroke-width="0.1" x1="160.15815488" x2="162.32901668" y1="39.531497" y2="39.56803236" /><line stroke="black" stroke-width="0.1" x1="162.32901668" x2="164.50003596" y1="39.56803236" y2="39.60850472" /><line stroke="black" stroke-width="0.1" x1="164.50003596" x2="166.67089776" y1="39.60850472" y2="39.6527566" /><line stroke="black" stroke-width="0.1" x1="166.67089776" x2="168.84191704" y1="39.6527566" y2="39.70110296" /><line stroke="black" stroke-width="0.1" x1="168.84191704" x2="171.0138812" y1="39.70110296" y2="39.75259892" /><line stroke="black" stroke-width="0.1" x1="171.0138812" x2="173.18568788" y1="39.75259892" y2="39.80755944" /><line stroke="black" stroke-width="0.1" x1="173.18568788" x2="175.35654968" y1="39.80755944" y2="39.86598452" /><line stroke="black" stroke-width="0.1" x1="175.35654968" x2="177.5248918" y1="39.86598452" y2="39.92787416" /><line stroke="black" stroke-width="0.1" x1="177.5248918" x2="179.66315524" y1="39.92787416" y2="39.99196852" /><line stroke="black" stroke-width="0.1" x1="179.66315524" x2="181.56283648" y1="39.99196852" y2="40.04929124" /><line stroke="black" stroke-width="0.1" x1="181.56283648" x2="182.48" y1="40.04929124" y2="40.07464552" /><line stroke="black" stroke-width="0.1" x1="182.48" x2="202.48" y1="40.07464552" y2="40.07464552" /><line stroke="black" stroke-width="0.1" x1="202.48" x2="202.48" y1="40.07464552" y2="50.07464552" /><line stroke="black" stroke-width="0.1" x1="202.48" x2="10" y1="50.07464552" y2="50.07464552" /><line stroke="black" stroke-width="0.1" x1="10" x2="10" y1="50.07464552" y2="45.07464552" /><path d="M 25.0,39.99181104 C 20.0 34.99181104, 20.0 34.99181104, 10 34.99181104" fill-opacity="0.0" stroke="black" stroke-width="0.1" /><line stroke="black" stroke-width="0.1" x1="10" x2="10" y1="34.9918" y2="44.9918" /></svg>