<?xml version="1.0" encoding="utf-8" ?>
<svg baseProfile="tiny" height="210mm" version="1.2" viewBox="0 0 297 210" width="297mm" xmlns="http://www.w3.org/2000/svg" xmlns:ev="http://www.w3.org/2001/xml-events" xmlns:xlink="http://www.w3.org/1999/xlink"><defs /><line stroke="black" stroke-width="0.1" x1="141.84" x2="141.16069224" y1="9.94461784" y2="9.87813588" /><line stroke="black" stroke-width="0.1" x1="141.16069224" x2="139.75978064" y1="9.87813588" y2="9.73781104" /><line stroke="black" stroke-width="0.1" x1="139.75978064" x2="138.18477744" y1="9.73781104" y2="9.58393276" /><line stroke="black" stroke-width="0.1" x1="138.18477744" x2="136.5845368" y1="9.58393276" y2="9.43028816" /><line stroke="black" stroke-width="0.1" x1="136.5845368" x2="134.98254356" y1="9.43028816" y2="9.28049928" /><line stroke="black" stroke-width="0.1" x1="134.98254356" x2="133.37692828" y1="9.28049928" y2="9.13328088" /><line stroke="black" stroke-width="0.1" x1="133.37692828" x2="131.76967724" y1="9.13328088" y2="8.98769824" /><line stroke="black" stroke-width="0.1" x1="131.76967724" x2="130.16195884" y1="8.98769824" y2="8.84363452" /><line stroke="black" stroke-width="0.1" x1="130.16195884" x2="128.55447412" y1="8.84363452" y2="8.70120656" /><line stroke="black" stroke-width="0.1" x1="128.55447412" x2="126.9469894" y1="8.70120656" y2="8.56064804" /><line stroke="black" stroke-width="0.1" x1="126.9469894" x2="125.33973836" y1="8.56064804" y2="8.42184212" /><line stroke="black" stroke-width="0.1" x1="125.33973836" x2="123.73201996" y1="8.42184212" y2="8.28490564" /><line stroke="black" stroke-width="0.1" x1="123.73201996" x2="122.12348368" y1="8.28490564" y2="8.14960492" /><line stroke="black" stroke-width="0.1" x1="122.12348368" x2="120.51471372" y1="8.14960492" y2="8.01582312" /><line stroke="black" stroke-width="0.1" x1="120.51471372" x2="118.90559324" y1="8.01582312" y2="7.88332656" /><line stroke="black" stroke-width="0.1" x1="118.90559324" x2="117.2960054" y1="7.88332656" y2="7.75223208" /><line stroke="black" stroke-width="0.1" x1="117.2960054" x2="115.68641756" y1="7.75223208" y2="7.62218916" /><line stroke="black" stroke-width="0.1" x1="115.68641756" x2="114.07682972" y1="7.62218916" y2="7.49354832" /><line stroke="black" stroke-width="0.1" x1="114.07682972" x2="112.46712504" y1="7.49354832" y2="7.36630956" /><line stroke="black" stroke-width="0.1" x1="112.46712504" x2="110.8575372" y1="7.36630956" y2="7.24035604" /><line stroke="black" stroke-width="0.1" x1="110.8575372" x2="109.24794936" y1="7.24035604" y2="7.1158046" /><line stroke="black" stroke-width="0.1" x1="109.24794936" x2="107.63812784" y1="7.1158046" y2="6.99277208" /><line stroke="black" stroke-width="0.1" x1="107.63812784" x2="106.02865684" y1="6.99277208" y2="6.87125848" /><line stroke="black" stroke-width="0.1" x1="106.02865684" x2="104.41930268" y1="6.87125848" y2="6.7512638" /><line stroke="black" stroke-width="0.1" x1="104.41930268" x2="102.809598" y1="6.7512638" y2="6.63302172" /><line stroke="black" stroke-width="0.1" x1="102.809598" x2="101.20024384" y1="6.63302172" y2="6.5164154" /><line stroke="black" stroke-width="0.1" x1="101.20024384" x2="99.59112336" y1="6.5164154" y2="6.40179536" /><line stroke="black" stroke-width="0.1" x1="99.59112336" x2="97.98188604" y1="6.40179536" y2="6.28892792" /><line stroke="black" stroke-width="0.1" x1="97.98188604" x2="96.37276556" y1="6.28892792" y2="6.17828044" /><line stroke="black" stroke-width="0.1" x1="96.37276556" x2="94.76376192" y1="6.17828044" y2="6.06961924" /><line stroke="black" stroke-width="0.1" x1="94.76376192" x2="93.15487512" y1="6.06961924" y2="5.96329484" /><line stroke="black" stroke-width="0.1" x1="93.15487512" x2="91.546222" y1="5.96329484" y2="5.85930724" /><line stroke="black" stroke-width="0.1" x1="91.546222" x2="89.93768572" y1="5.85930724" y2="5.75777328" /><line stroke="black" stroke-width="0.1" x1="89.93768572" x2="88.32938312" y1="5.75777328" y2="5.65892664" /><line stroke="black" stroke-width="0.1" x1="88.32938312" x2="86.72096368" y1="5.65892664" y2="5.56276732" /><line stroke="black" stroke-width="0.1" x1="86.72096368" x2="85.1130116" y1="5.56276732" y2="5.469529" /><line stroke="black" stroke-width="0.1" x1="85.1130116" x2="83.5052932" y1="5.469529" y2="5.37932852" /><line stroke="black" stroke-width="0.1" x1="83.5052932" x2="81.89780848" y1="5.37932852" y2="5.2925164" /><line stroke="black" stroke-width="0.1" x1="81.89780848" x2="80.29067428" y1="5.2925164" y2="5.20885896" /><line stroke="black" stroke-width="0.1" x1="80.29067428" x2="78.68377376" y1="5.20885896" y2="5.12905724" /><line stroke="black" stroke-width="0.1" x1="78.68377376" x2="77.0773406" y1="5.12905724" y2="5.05311124" /><line stroke="black" stroke-width="0.1" x1="77.0773406" x2="75.4713748" y1="5.05311124" y2="4.98137148" /><line stroke="black" stroke-width="0.1" x1="75.4713748" x2="73.86575952" y1="4.98137148" y2="4.9139548" /><line stroke="black" stroke-width="0.1" x1="73.86575952" x2="72.26084528" y1="4.9139548" y2="4.85109488" /><line stroke="black" stroke-width="0.1" x1="72.26084528" x2="70.65616472" y1="4.85109488" y2="4.79337592" /><line stroke="black" stroke-width="0.1" x1="70.65616472" x2="69.05230204" y1="4.79337592" y2="4.74079792" /><line stroke="black" stroke-width="0.1" x1="69.05230204" x2="67.44902356" y1="4.74079792" y2="4.6937114" /><line stroke="black" stroke-width="0.1" x1="67.44902356" x2="65.84656296" y1="4.6937114" y2="4.65258372" /><line stroke="black" stroke-width="0.1" x1="65.84656296" x2="64.24468656" y1="4.65258372" y2="4.6177654" /><line stroke="black" stroke-width="0.1" x1="64.24468656" x2="62.64386172" y1="4.6177654" y2="4.58960696" /><line stroke="black" stroke-width="0.1" x1="62.64386172" x2="61.0439716" y1="4.58960696" y2="4.56857576" /><line stroke="black" stroke-width="0.1" x1="61.0439716" x2="59.44513304" y1="4.56857576" y2="4.55502232" /><line stroke="black" stroke-width="0.1" x1="59.44513304" x2="57.84769656" y1="4.55502232" y2="4.54964768" /><line stroke="black" stroke-width="0.1" x1="57.84769656" x2="56.25142848" y1="4.54964768" y2="4.55280236" /><line stroke="black" stroke-width="0.1" x1="56.25142848" x2="54.65679616" y1="4.55280236" y2="4.56507056" /><line stroke="black" stroke-width="0.1" x1="54.65679616" x2="53.06391644" y1="4.56507056" y2="4.58715332" /><line stroke="black" stroke-width="0.1" x1="53.06391644" x2="51.47325668" y1="4.58715332" y2="4.619518" /><line stroke="black" stroke-width="0.1" x1="51.47325668" x2="49.88481688" y1="4.619518" y2="4.663333" /><line stroke="black" stroke-width="0.1" x1="49.88481688" x2="48.29988228" y1="4.663333" y2="4.71929936" /><line stroke="black" stroke-width="0.1" x1="48.29988228" x2="46.71892024" y1="4.71929936" y2="4.78870232" /><line stroke="black" stroke-width="0.1" x1="46.71892024" x2="45.14216444" y1="4.78870232" y2="4.87294396" /><line stroke="black" stroke-width="0.1" x1="45.14216444" x2="43.57090012" y1="4.87294396" y2="4.97342636" /><line stroke="black" stroke-width="0.1" x1="43.57090012" x2="42.00571148" y1="4.97342636" y2="5.09178528" /><line stroke="black" stroke-width="0.1" x1="42.00571148" x2="40.4480006" y1="5.09178528" y2="5.230007" /><line stroke="black" stroke-width="0.1" x1="40.4480006" x2="38.8998706" y1="5.230007" y2="5.39042832" /><line stroke="black" stroke-width="0.1" x1="38.8998706" x2="37.36307408" y1="5.39042832" y2="5.57550288" /><line stroke="black" stroke-width="0.1" x1="37.36307408" x2="35.84146676" y1="5.57550288" y2="5.78826852" /><line stroke="black" stroke-width="0.1" x1="35.84146676" x2="34.33995592" y1="5.78826852" y2="6.03281464" /><line stroke="black" stroke-width="0.1" x1="34.33995592" x2="32.86461724" y1="6.03281464" y2="6.31381484" /><line stroke="black" stroke-width="0.1" x1="32.86461724" x2="31.42538212" y1="6.31381484" y2="6.63594272" /><line stroke="black" stroke-width="0.1" x1="31.42538212" x2="30.03942604" y1="6.63594272" y2="7.0053908" /><line stroke="black" stroke-width="0.1" x1="30.03942604" x2="28.73514112" y1="7.0053908" y2="7.42554744" /><line stroke="black" stroke-width="0.1" x1="28.73514112" x2="27.567559" y1="7.42554744" y2="7.89022012" /><line stroke="black" stroke-width="0.1" x1="27.567559" x2="26.62629596" y1="7.89022012" y2="8.36295476" /><line stroke="black" stroke-width="0.1" x1="26.62629596" x2="25.97234248" y1="8.36295476" y2="8.78089144" /><line stroke="black" stroke-width="0.1" x1="25.97234248" x2="25.557911" y1="8.78089144" y2="9.11774116" /><line stroke="black" stroke-width="0.1" x1="25.557911" x2="25.2973578" y1="9.11774116" y2="9.38916048" /><line stroke="black" stroke-width="0.1" x1="25.2973578" x2="25.13191236" y1="9.38916048" y2="9.61594692" /><line stroke="black" stroke-width="0.1" x1="25.13191236" x2="25.03481832" y1="9.61594692" y2="9.8142244" /><line stroke="black" stroke-width="0.1" x1="25.03481832" x2="25.0" y1="9.8142244" y2="9.99392432" /><line stroke="black" stroke-width="0.1" x1="141.84" x2="161.84" y1="9.94461784" y2="9.94461784" /><line stroke="black" stroke-width="0.1" x1="161.84" x2="161.84" y1="9.94461784" y2="19.94461784" /><line stroke="black" stroke-width="0.1" x1="161.84" x2="10" y1="19.94461784" y2="19.94461784" /><line stroke="black" stroke-width="0.1" x1="10" x2="10" y1="19.94461784" y2="14.94461784" /><path d="M 25.0,9.99392432 C 20.0 14.99392432, 20.0 14.99392432, 10 14.94461784" fill-opacity="0.0" stroke="black" stroke-width="0.1" /><line stroke="black" stroke-width="0.1" x1="25.0" x2="25.0327152" y1="39.99392432" y2="40.16638016" /><line stroke="black" stroke-width="0.1" x1="25.0327152" x2="25.14791944" y1="40.16638016" y2="40.33322768" /><line stroke="black" stroke-width="0.1" x1="25.14791944" x2="25.34561272" y1="40.33322768" y2="40.48558704" /><line stroke="black" stroke-width="0.1" x1="25.34561272" x2="25.63818008" y1="40.48558704" y2="40.63759588" /><line stroke="black" stroke-width="0.1" x1="25.63818008" x2="26.0772648" y1="40.63759588" y2="40.80549496" /><line stroke="black" stroke-width="0.1" x1="26.0772648" x2="26.76650396" y1="40.80549496" y2="40.9978136" /><line stroke="black" stroke-width="0.1" x1="26.76650396" x2="27.80404316" y1="40.9978136" y2="41.20204992" /><line stroke="black" stroke-width="0.1" x1="27.80404316" x2="29.12398464" y1="41.20204992" y2="41.37976356" /><line stroke="black" stroke-width="0.1" x1="29.12398464" x2="30.5779416" y1="41.37976356" y2="41.51261064" /><line stroke="black" stroke-width="0.1" x1="30.5779416" x2="32.08915016" y1="41.51261064" y2="41.60608264" /><line stroke="black" stroke-width="0.1" x1="32.08915016" x2="33.63085396" y1="41.60608264" y2="41.66754048" /><line stroke="black" stroke-width="0.1" x1="33.63085396" x2="35.1925374" y1="41.66754048" y2="41.7046956" /><line stroke="black" stroke-width="0.1" x1="35.1925374" x2="36.7675406" y1="41.7046956" y2="41.7228058" /><line stroke="black" stroke-width="0.1" x1="36.7675406" x2="38.35154048" y1="41.7228058" y2="41.72584364" /><line stroke="black" stroke-width="0.1" x1="38.35154048" x2="39.94161604" y1="41.72584364" y2="41.71661328" /><line stroke="black" stroke-width="0.1" x1="39.94161604" x2="41.53613152" y1="41.71661328" y2="41.69721784" /><line stroke="black" stroke-width="0.1" x1="41.53613152" x2="43.1341522" y1="41.69721784" y2="41.66894256" /><line stroke="black" stroke-width="0.1" x1="43.1341522" x2="44.73509388" y1="41.66894256" y2="41.63330636" /><line stroke="black" stroke-width="0.1" x1="44.73509388" x2="46.33825552" y1="41.63330636" y2="41.59124396" /><line stroke="black" stroke-width="0.1" x1="46.33825552" x2="47.94305292" y1="41.59124396" y2="41.54380692" /><line stroke="black" stroke-width="0.1" x1="47.94305292" x2="49.54948608" y1="41.54380692" y2="41.49157944" /><line stroke="black" stroke-width="0.1" x1="49.54948608" x2="51.15732132" y1="41.49157944" y2="41.43526256" /><line stroke="black" stroke-width="0.1" x1="51.15732132" x2="52.76632496" y1="41.43526256" y2="41.37544048" /><line stroke="black" stroke-width="0.1" x1="52.76632496" x2="54.376497" y1="41.37544048" y2="41.3126974" /><line stroke="black" stroke-width="0.1" x1="54.376497" x2="55.98760376" y1="41.3126974" y2="41.24750068" /><line stroke="black" stroke-width="0.1" x1="55.98760376" x2="57.59964524" y1="41.24750068" y2="41.180084" /><line stroke="black" stroke-width="0.1" x1="57.59964524" x2="59.21285512" y1="41.180084" y2="41.11103156" /><line stroke="black" stroke-width="0.1" x1="59.21285512" x2="60.82676604" y1="41.11103156" y2="41.04081072" /><line stroke="black" stroke-width="0.1" x1="60.82676604" x2="62.44172852" y1="41.04081072" y2="40.969772" /><line stroke="black" stroke-width="0.1" x1="62.44172852" x2="64.05750888" y1="40.969772" y2="40.89838276" /><line stroke="black" stroke-width="0.1" x1="64.05750888" x2="65.67363976" y1="40.89838276" y2="40.82687668" /><line stroke="black" stroke-width="0.1" x1="65.67363976" x2="67.28918644" y1="40.82687668" y2="40.75548744" /><line stroke="black" stroke-width="0.1" x1="67.28918644" x2="68.9043826" y1="40.75548744" y2="40.68456556" /><line stroke="black" stroke-width="0.1" x1="68.9043826" x2="70.51899456" y1="40.68456556" y2="40.61434472" /><line stroke="black" stroke-width="0.1" x1="70.51899456" x2="72.13313916" y1="40.61434472" y2="40.54482492" /><line stroke="black" stroke-width="0.1" x1="72.13313916" x2="73.74705008" y1="40.54482492" y2="40.47647352" /><line stroke="black" stroke-width="0.1" x1="73.74705008" x2="75.36061048" y1="40.47647352" y2="40.40917368" /><line stroke="black" stroke-width="0.1" x1="75.36061048" x2="76.97382036" y1="40.40917368" y2="40.34327592" /><line stroke="black" stroke-width="0.1" x1="76.97382036" x2="78.58667972" y1="40.34327592" y2="40.27889708" /><line stroke="black" stroke-width="0.1" x1="78.58667972" x2="80.19907172" y1="40.27889708" y2="40.21603716" /><line stroke="black" stroke-width="0.1" x1="80.19907172" x2="81.8111132" y1="40.21603716" y2="40.15516352" /><line stroke="black" stroke-width="0.1" x1="81.8111132" x2="83.42257048" y1="40.15516352" y2="40.096393" /><line stroke="black" stroke-width="0.1" x1="83.42257048" x2="85.03379408" y1="40.096393" y2="40.0397256" /><line stroke="black" stroke-width="0.1" x1="85.03379408" x2="86.64466716" y1="40.0397256" y2="39.98562868" /><line stroke="black" stroke-width="0.1" x1="86.64466716" x2="88.25507288" y1="39.98562868" y2="39.93421908" /><line stroke="black" stroke-width="0.1" x1="88.25507288" x2="89.86524492" y1="39.93421908" y2="39.88561364" /><line stroke="black" stroke-width="0.1" x1="89.86524492" x2="91.47518328" y1="39.88561364" y2="39.8399292" /><line stroke="black" stroke-width="0.1" x1="91.47518328" x2="93.08488796" y1="39.8399292" y2="39.79739944" /><line stroke="black" stroke-width="0.1" x1="93.08488796" x2="94.69435896" y1="39.79739944" y2="39.7581412" /><line stroke="black" stroke-width="0.1" x1="94.69435896" x2="96.30382996" y1="39.7581412" y2="39.72227132" /><line stroke="black" stroke-width="0.1" x1="96.30382996" x2="97.91330096" y1="39.72227132" y2="39.68955612" /><line stroke="black" stroke-width="0.1" x1="97.91330096" x2="99.52277196" y1="39.68955612" y2="39.66022928" /><line stroke="black" stroke-width="0.1" x1="99.52277196" x2="101.13224296" y1="39.66022928" y2="39.6342908" /><line stroke="black" stroke-width="0.1" x1="101.13224296" x2="102.7418308" y1="39.6342908" y2="39.61174068" /><line stroke="black" stroke-width="0.1" x1="102.7418308" x2="104.3513018" y1="39.61174068" y2="39.59257892" /><line stroke="black" stroke-width="0.1" x1="104.3513018" x2="105.96053912" y1="39.59257892" y2="39.57680552" /><line stroke="black" stroke-width="0.1" x1="105.96053912" x2="107.57012696" y1="39.57680552" y2="39.56453732" /><line stroke="black" stroke-width="0.1" x1="107.57012696" x2="109.17959796" y1="39.56453732" y2="39.55565748" /><line stroke="black" stroke-width="0.1" x1="109.17959796" x2="110.78930264" y1="39.55565748" y2="39.55028284" /><line stroke="black" stroke-width="0.1" x1="110.78930264" x2="112.39900732" y1="39.55028284" y2="39.54829656" /><line stroke="black" stroke-width="0.1" x1="112.39900732" x2="114.00859516" y1="39.54829656" y2="39.54981548" /><line stroke="black" stroke-width="0.1" x1="114.00859516" x2="115.61806616" y1="39.54981548" y2="39.55472276" /><line stroke="black" stroke-width="0.1" x1="115.61806616" x2="117.22800452" y1="39.55472276" y2="39.56290156" /><line stroke="black" stroke-width="0.1" x1="117.22800452" x2="118.83805972" y1="39.56290156" y2="39.57446872" /><line stroke="black" stroke-width="0.1" x1="118.83805972" x2="120.44799808" y1="39.57446872" y2="39.58907372" /><line stroke="black" stroke-width="0.1" x1="120.44799808" x2="122.05793644" y1="39.58907372" y2="39.60706708" /><line stroke="black" stroke-width="0.1" x1="122.05793644" x2="123.66822532" y1="39.60706708" y2="39.62821512" /><line stroke="black" stroke-width="0.1" x1="123.66822532" x2="125.27863104" y1="39.62821512" y2="39.652401" /><line stroke="black" stroke-width="0.1" x1="125.27863104" x2="126.88927044" y1="39.652401" y2="39.67950788" /><line stroke="black" stroke-width="0.1" x1="126.88927044" x2="128.50002668" y1="39.67950788" y2="39.70953576" /><line stroke="black" stroke-width="0.1" x1="128.50002668" x2="130.11066608" y1="39.70953576" y2="39.7423678" /><line stroke="black" stroke-width="0.1" x1="130.11066608" x2="131.72142232" y1="39.7423678" y2="39.77823768" /><line stroke="black" stroke-width="0.1" x1="131.72142232" x2="133.3328796" y1="39.77823768" y2="39.81644436" /><line stroke="black" stroke-width="0.1" x1="133.3328796" x2="134.94422004" y1="39.81644436" y2="39.85722152" /><line stroke="black" stroke-width="0.1" x1="134.94422004" x2="136.55485944" y1="39.85722152" y2="39.90056916" /><line stroke="black" stroke-width="0.1" x1="136.55485944" x2="138.1636294" y1="39.90056916" y2="39.94648728" /><line stroke="black" stroke-width="0.1" x1="138.1636294" x2="139.75008292" y1="39.94648728" y2="39.99404116" /><line stroke="black" stroke-width="0.1" x1="139.75008292" x2="141.15952384" y1="39.99404116" y2="40.03657092" /><line stroke="black" stroke-width="0.1" x1="141.15952384" x2="141.84" y1="40.03657092" y2="40.05538216" /><line stroke="black" stroke-width="0.1" x1="141.84" x2="161.84" y1="40.05538216" y2="40.05538216" /><line stroke="black" stroke-width="0.1" x1="161.84" x2="161.84" y1="40.05538216" y2="50.05538216" /><line stroke="black" stroke-width="0.1" x1="161.84" x2="10" y1="50.05538216" y2="50.05538216" /><line stroke="black" stroke-width="0.1" x1="10" x2="10" y1="50.05538216" y2="45.05538216" /><path d="M 25.0,39.99392432 C 20.0 34.99392432, 20.0 34.99392432, 10 34.99392432" fill-opacity="0.0" stroke="black" stroke-width="0.1" /><line stroke="black" stroke-width="0.1" x1="10" x2="10" y1="34.9939" y2="44.9939" /></svg>