<?xml version="1.0" encoding="utf-8" ?>
<svg baseProfile="tiny" height="220mm" version="1.2" viewBox="0 0 220 220" width="220mm" xmlns="http://www.w3.org/2000/svg" xmlns:ev="http://www.w3.org/2001/xml-events" xmlns:xlink="http://www.w3.org/1999/xlink"><defs /><line stroke="black" stroke-width="0.1" x1="182.48" x2="181.56441128" y1="9.92535448" y2="9.83574836" /><line stroke="black" stroke-width="0.1" x1="181.56441128" x2="179.67622608" y1="9.83574836" y2="9.64661488" /><line stroke="black" stroke-width="0.1" x1="179.67622608" x2="177.55339568" y1="9.64661488" y2="9.43921372" /><line stroke="black" stroke-width="0.1" x1="177.55339568" x2="175.3965496" y1="9.43921372" y2="9.23212752" /><line stroke="black" stroke-width="0.1" x1="175.3965496" x2="173.23734132" y1="9.23212752" y2="9.03023816" /><line stroke="black" stroke-width="0.1" x1="173.23734132" x2="171.07325116" y1="9.03023816" y2="8.83181336" /><line stroke="black" stroke-width="0.1" x1="171.07325116" x2="168.90695628" y1="8.83181336" y2="8.63559328" /><line stroke="black" stroke-width="0.1" x1="168.90695628" x2="166.74003148" y1="8.63559328" y2="8.44142044" /><line stroke="black" stroke-width="0.1" x1="166.74003148" x2="164.57342164" y1="8.44142044" y2="8.24945232" /><line stroke="black" stroke-width="0.1" x1="164.57342164" x2="162.4068118" y1="8.24945232" y2="8.06000388" /><line stroke="black" stroke-width="0.1" x1="162.4068118" x2="160.24051692" y1="8.06000388" y2="7.87291764" /><line stroke="black" stroke-width="0.1" x1="160.24051692" x2="158.07359212" y1="7.87291764" y2="7.68835108" /><line stroke="black" stroke-width="0.1" x1="158.07359212" x2="155.90556496" y1="7.68835108" y2="7.50598924" /><line stroke="black" stroke-width="0.1" x1="155.90556496" x2="153.73722284" y1="7.50598924" y2="7.32567464" /><line stroke="black" stroke-width="0.1" x1="153.73722284" x2="151.56840828" y1="7.32567464" y2="7.14709232" /><line stroke="black" stroke-width="0.1" x1="151.56840828" x2="149.3989638" y1="7.14709232" y2="6.97039976" /><line stroke="black" stroke-width="0.1" x1="149.3989638" x2="147.22951932" y1="6.97039976" y2="6.79512452" /><line stroke="black" stroke-width="0.1" x1="147.22951932" x2="145.06007484" y1="6.79512452" y2="6.62173904" /><line stroke="black" stroke-width="0.1" x1="145.06007484" x2="142.89047288" y1="6.62173904" y2="6.45024332" /><line stroke="black" stroke-width="0.1" x1="142.89047288" x2="140.7210284" y1="6.45024332" y2="6.28047988" /><line stroke="black" stroke-width="0.1" x1="140.7210284" x2="138.55158392" y1="6.28047988" y2="6.1126062" /><line stroke="black" stroke-width="0.1" x1="138.55158392" x2="136.38182448" y1="6.1126062" y2="5.94677976" /><line stroke="black" stroke-width="0.1" x1="136.38182448" x2="134.21253748" y1="5.94677976" y2="5.78300056" /><line stroke="black" stroke-width="0.1" x1="134.21253748" x2="132.04340796" y1="5.78300056" y2="5.6212686" /><line stroke="black" stroke-width="0.1" x1="132.04340796" x2="129.873806" y1="5.6212686" y2="5.46189884" /><line stroke="black" stroke-width="0.1" x1="129.873806" x2="127.70467648" y1="5.46189884" y2="5.3047338" /><line stroke="black" stroke-width="0.1" x1="127.70467648" x2="125.53586192" y1="5.3047338" y2="5.15024592" /><line stroke="black" stroke-width="0.1" x1="125.53586192" x2="123.36688988" y1="5.15024592" y2="4.99812024" /><line stroke="black" stroke-width="0.1" x1="123.36688988" x2="121.19807532" y1="4.99812024" y2="4.84898668" /><line stroke="black" stroke-width="0.1" x1="121.19807532" x2="119.02941824" y1="4.84898668" y2="4.70253028" /><line stroke="black" stroke-width="0.1" x1="119.02941824" x2="116.86091864" y1="4.70253028" y2="4.55922348" /><line stroke="black" stroke-width="0.1" x1="116.86091864" x2="114.692734" y1="4.55922348" y2="4.41906628" /><line stroke="black" stroke-width="0.1" x1="114.692734" x2="112.52470684" y1="4.41906628" y2="4.28221616" /><line stroke="black" stroke-width="0.1" x1="112.52470684" x2="110.35699464" y1="4.28221616" y2="4.14898808" /><line stroke="black" stroke-width="0.1" x1="110.35699464" x2="108.18912496" y1="4.14898808" y2="4.01938204" /><line stroke="black" stroke-width="0.1" x1="108.18912496" x2="106.0218852" y1="4.01938204" y2="3.893713" /><line stroke="black" stroke-width="0.1" x1="106.0218852" x2="103.8549604" y1="3.893713" y2="3.77213844" /><line stroke="black" stroke-width="0.1" x1="103.8549604" x2="101.68835056" y1="3.77213844" y2="3.6551308" /><line stroke="black" stroke-width="0.1" x1="101.68835056" x2="99.52221316" y1="3.6551308" y2="3.54237512" /><line stroke="black" stroke-width="0.1" x1="99.52221316" x2="97.35639072" y1="3.54237512" y2="3.43481628" /><line stroke="black" stroke-width="0.1" x1="97.35639072" x2="95.1911982" y1="3.43481628" y2="3.33245428" /><line stroke="black" stroke-width="0.1" x1="95.1911982" x2="93.0266356" y1="3.33245428" y2="3.23576156" /><line stroke="black" stroke-width="0.1" x1="93.0266356" x2="90.86254544" y1="3.23576156" y2="3.1448956" /><line stroke="black" stroke-width="0.1" x1="90.86254544" x2="88.69940016" y1="3.1448956" y2="3.06017136" /><line stroke="black" stroke-width="0.1" x1="88.69940016" x2="86.53656984" y1="3.06017136" y2="2.98237624" /><line stroke="black" stroke-width="0.1" x1="86.53656984" x2="84.37484188" y1="2.98237624" y2="2.91151024" /><line stroke="black" stroke-width="0.1" x1="84.37484188" x2="82.21390132" y1="2.91151024" y2="2.8480458" /><line stroke="black" stroke-width="0.1" x1="82.21390132" x2="80.05406312" y1="2.8480458" y2="2.79261284" /><line stroke="black" stroke-width="0.1" x1="80.05406312" x2="77.89501232" y1="2.79261284" y2="2.7456838" /><line stroke="black" stroke-width="0.1" x1="77.89501232" x2="75.73737884" y1="2.7456838" y2="2.70773112" /><line stroke="black" stroke-width="0.1" x1="75.73737884" x2="73.5810052" y1="2.70773112" y2="2.67938472" /><line stroke="black" stroke-width="0.1" x1="73.5810052" x2="71.42604888" y1="2.67938472" y2="2.66111704" /><line stroke="black" stroke-width="0.1" x1="71.42604888" x2="69.27298232" y1="2.66111704" y2="2.65387296" /><line stroke="black" stroke-width="0.1" x1="69.27298232" x2="67.12149056" y1="2.65387296" y2="2.65812492" /><line stroke="black" stroke-width="0.1" x1="67.12149056" x2="64.97220352" y1="2.65812492" y2="2.67466032" /><line stroke="black" stroke-width="0.1" x1="64.97220352" x2="62.82527868" y1="2.67466032" y2="2.70442404" /><line stroke="black" stroke-width="0.1" x1="62.82527868" x2="60.68134596" y1="2.70442404" y2="2.748046" /><line stroke="black" stroke-width="0.1" x1="60.68134596" x2="58.54040536" y1="2.748046" y2="2.807101" /><line stroke="black" stroke-width="0.1" x1="58.54040536" x2="56.40418916" y1="2.807101" y2="2.88253392" /><line stroke="black" stroke-width="0.1" x1="56.40418916" x2="54.27332728" y1="2.88253392" y2="2.97607704" /><line stroke="black" stroke-width="0.1" x1="54.27332728" x2="52.14813468" y1="2.97607704" y2="3.08962012" /><line stroke="black" stroke-width="0.1" x1="52.14813468" x2="50.03034364" y1="3.08962012" y2="3.22505292" /><line stroke="black" stroke-width="0.1" x1="50.03034364" x2="47.92074156" y1="3.22505292" y2="3.38458016" /><line stroke="black" stroke-width="0.1" x1="47.92074156" x2="45.8212182" y1="3.38458016" y2="3.570879" /><line stroke="black" stroke-width="0.1" x1="45.8212182" x2="43.7346082" y1="3.570879" y2="3.78709904" /><line stroke="black" stroke-width="0.1" x1="43.7346082" x2="41.66327376" y1="3.78709904" y2="4.03654736" /><line stroke="black" stroke-width="0.1" x1="41.66327376" x2="39.61241172" y1="4.03654736" y2="4.32331844" /><line stroke="black" stroke-width="0.1" x1="39.61241172" x2="37.58863624" y1="4.32331844" y2="4.65292408" /><line stroke="black" stroke-width="0.1" x1="37.58863624" x2="35.60013628" y1="4.65292408" y2="5.03166348" /><line stroke="black" stroke-width="0.1" x1="35.60013628" x2="33.66029764" y1="5.03166348" y2="5.46583584" /><line stroke="black" stroke-width="0.1" x1="33.66029764" x2="31.79226988" y1="5.46583584" y2="5.9637876" /><line stroke="black" stroke-width="0.1" x1="31.79226988" x2="30.03432064" y1="5.9637876" y2="6.53008568" /><line stroke="black" stroke-width="0.1" x1="30.03432064" x2="28.460623" y1="6.53008568" y2="7.15638364" /><line stroke="black" stroke-width="0.1" x1="28.460623" x2="27.19196412" y1="7.15638364" y2="7.79354772" /><line stroke="black" stroke-width="0.1" x1="27.19196412" x2="26.31054856" y1="7.79354772" y2="8.35685368" /><line stroke="black" stroke-width="0.1" x1="26.31054856" x2="25.751967" y1="8.35685368" y2="8.81086852" /><line stroke="black" stroke-width="0.1" x1="25.751967" x2="25.4007866" y1="8.81086852" y2="9.17669456" /><line stroke="black" stroke-width="0.1" x1="25.4007866" x2="25.17779492" y1="9.17669456" y2="9.48236324" /><line stroke="black" stroke-width="0.1" x1="25.17779492" x2="25.04692904" y1="9.48236324" y2="9.7496068" /><line stroke="black" stroke-width="0.1" x1="25.04692904" x2="25.0" y1="9.7496068" y2="9.99181104" /><line stroke="black" stroke-width="0.1" x1="182.48" x2="202.48" y1="9.92535448" y2="9.92535448" /><line stroke="black" stroke-width="0.1" x1="202.48" x2="202.48" y1="9.92535448" y2="29.92535448" /><line stroke="black" stroke-width="0.1" x1="202.48" x2="10" y1="29.92535448" y2="29.92535448" /><line stroke="black" stroke-width="0.1" x1="10" x2="10" y1="29.92535448" y2="14.92535448" /><path d="M 25.4007866,9.17669456 C 20.0 14.99181104, 20.0 14.99181104, 10 14.92535448" fill-opacity="0.0" stroke="black" stroke-width="0.1" /><line stroke="black" stroke-width="0.1" x1="25.0" x2="25.0440944" y1="9.99181104" y2="10.22425152" /><line stroke="black" stroke-width="0.1" x1="25.0440944" x2="25.19936968" y1="10.22425152" y2="10.44913296" /><line stroke="black" stroke-width="0.1" x1="25.19936968" x2="25.46582584" y1="10.44913296" y2="10.65448688" /><line stroke="black" stroke-width="0.1" x1="25.46582584" x2="25.86015576" y1="10.65448688" y2="10.85936836" /><line stroke="black" stroke-width="0.1" x1="25.86015576" x2="26.4519656" y1="10.85936836" y2="11.08566712" /><line stroke="black" stroke-width="0.1" x1="26.4519656" x2="27.38094012" y1="11.08566712" y2="11.3448792" /><line stroke="black" stroke-width="0.1" x1="27.38094012" x2="28.77936252" y1="11.3448792" y2="11.62015424" /><line stroke="black" stroke-width="0.1" x1="28.77936252" x2="30.55841408" y1="11.62015424" y2="11.85968132" /><line stroke="black" stroke-width="0.1" x1="30.55841408" x2="32.5180952" y1="11.85968132" y2="12.03873608" /><line stroke="black" stroke-width="0.1" x1="32.5180952" x2="34.55494152" y1="12.03873608" y2="12.16472008" /><line stroke="black" stroke-width="0.1" x1="34.55494152" x2="36.63289012" y1="12.16472008" y2="12.24755456" /><line stroke="black" stroke-width="0.1" x1="36.63289012" x2="38.7377678" y1="12.24755456" y2="12.2976332" /><line stroke="black" stroke-width="0.1" x1="38.7377678" x2="40.8605982" y1="12.2976332" y2="12.3220426" /><line stroke="black" stroke-width="0.1" x1="40.8605982" x2="42.99555456" y1="12.3220426" y2="12.32613708" /><line stroke="black" stroke-width="0.1" x1="42.99555456" x2="45.13869988" y1="12.32613708" y2="12.31369616" /><line stroke="black" stroke-width="0.1" x1="45.13869988" x2="47.28782944" y1="12.31369616" y2="12.28755448" /><line stroke="black" stroke-width="0.1" x1="47.28782944" x2="49.4416834" y1="12.28755448" y2="12.24944432" /><line stroke="black" stroke-width="0.1" x1="49.4416834" x2="51.59947436" y1="12.24944432" y2="12.20141292" /><line stroke="black" stroke-width="0.1" x1="51.59947436" x2="53.76025744" y1="12.20141292" y2="12.14472012" /><line stroke="black" stroke-width="0.1" x1="53.76025744" x2="55.92324524" y1="12.14472012" y2="12.08078324" /><line stroke="black" stroke-width="0.1" x1="55.92324524" x2="58.08843776" y1="12.08078324" y2="12.01038968" /><line stroke="black" stroke-width="0.1" x1="58.08843776" x2="60.25552004" y1="12.01038968" y2="11.93448432" /><line stroke="black" stroke-width="0.1" x1="60.25552004" x2="62.42417712" y1="11.93448432" y2="11.85385456" /><line stroke="black" stroke-width="0.1" x1="62.42417712" x2="64.594409" y1="11.85385456" y2="11.7692878" /><line stroke="black" stroke-width="0.1" x1="64.594409" x2="66.76590072" y1="11.7692878" y2="11.68141396" /><line stroke="black" stroke-width="0.1" x1="66.76590072" x2="68.93865228" y1="11.68141396" y2="11.590548" /><line stroke="black" stroke-width="0.1" x1="68.93865228" x2="71.11297864" y1="11.590548" y2="11.49747732" /><line stroke="black" stroke-width="0.1" x1="71.11297864" x2="73.28824988" y1="11.49747732" y2="11.40283184" /><line stroke="black" stroke-width="0.1" x1="73.28824988" x2="75.46493844" y1="11.40283184" y2="11.307084" /><line stroke="black" stroke-width="0.1" x1="75.46493844" x2="77.64272936" y1="11.307084" y2="11.21086372" /><line stroke="black" stroke-width="0.1" x1="77.64272936" x2="79.82099272" y1="11.21086372" y2="11.11448596" /><line stroke="black" stroke-width="0.1" x1="79.82099272" x2="81.99846868" y1="11.11448596" y2="11.01826568" /><line stroke="black" stroke-width="0.1" x1="81.99846868" x2="84.1754722" y1="11.01826568" y2="10.92267532" /><line stroke="black" stroke-width="0.1" x1="84.1754722" x2="86.35168832" y1="10.92267532" y2="10.82802984" /><line stroke="black" stroke-width="0.1" x1="86.35168832" x2="88.52727452" y1="10.82802984" y2="10.73432924" /><line stroke="black" stroke-width="0.1" x1="88.52727452" x2="90.70254576" y1="10.73432924" y2="10.64220344" /><line stroke="black" stroke-width="0.1" x1="90.70254576" x2="92.87734456" y1="10.64220344" y2="10.55149496" /><line stroke="black" stroke-width="0.1" x1="92.87734456" x2="95.05167092" y1="10.55149496" y2="10.46267624" /><line stroke="black" stroke-width="0.1" x1="95.05167092" x2="97.22552484" y1="10.46267624" y2="10.37590476" /><line stroke="black" stroke-width="0.1" x1="97.22552484" x2="99.39874884" y1="10.37590476" y2="10.29118052" /><line stroke="black" stroke-width="0.1" x1="99.39874884" x2="101.5715004" y1="10.29118052" y2="10.20913344" /><line stroke="black" stroke-width="0.1" x1="101.5715004" x2="103.74346456" y1="10.20913344" y2="10.129921" /><line stroke="black" stroke-width="0.1" x1="103.74346456" x2="105.91511376" y1="10.129921" y2="10.0535432" /><line stroke="black" stroke-width="0.1" x1="105.91511376" x2="108.08629052" y1="10.0535432" y2="9.98062996" /><line stroke="black" stroke-width="0.1" x1="108.08629052" x2="110.25683736" y1="9.98062996" y2="9.91133876" /><line stroke="black" stroke-width="0.1" x1="110.25683736" x2="112.42706924" y1="9.91133876" y2="9.84582708" /><line stroke="black" stroke-width="0.1" x1="112.42706924" x2="114.59698616" y1="9.84582708" y2="9.7842524" /><line stroke="black" stroke-width="0.1" x1="114.59698616" x2="116.76658812" y1="9.7842524" y2="9.72692968" /><line stroke="black" stroke-width="0.1" x1="116.76658812" x2="118.93587512" y1="9.72692968" y2="9.6740164" /><line stroke="black" stroke-width="0.1" x1="118.93587512" x2="121.10516212" y1="9.6740164" y2="9.62567004" /><line stroke="black" stroke-width="0.1" x1="121.10516212" x2="123.27444912" y1="9.62567004" y2="9.58157564" /><line stroke="black" stroke-width="0.1" x1="123.27444912" x2="125.44373612" y1="9.58157564" y2="9.54204816" /><line stroke="black" stroke-width="0.1" x1="125.44373612" x2="127.61302312" y1="9.54204816" y2="9.5070876" /><line stroke="black" stroke-width="0.1" x1="127.61302312" x2="129.7824676" y1="9.5070876" y2="9.47669396" /><line stroke="black" stroke-width="0.1" x1="129.7824676" x2="131.9517546" y1="9.47669396" y2="9.45086724" /><line stroke="black" stroke-width="0.1" x1="131.9517546" x2="134.12072664" y1="9.45086724" y2="9.42960744" /><line stroke="black" stroke-width="0.1" x1="134.12072664" x2="136.29017112" y1="9.42960744" y2="9.41307204" /><line stroke="black" stroke-width="0.1" x1="136.29017112" x2="138.45945812" y1="9.41307204" y2="9.40110356" /><line stroke="black" stroke-width="0.1" x1="138.45945812" x2="140.62906008" y1="9.40110356" y2="9.39385948" /><line stroke="black" stroke-width="0.1" x1="140.62906008" x2="142.79866204" y1="9.39385948" y2="9.39118232" /><line stroke="black" stroke-width="0.1" x1="142.79866204" x2="144.96810652" y1="9.39118232" y2="9.39322956" /><line stroke="black" stroke-width="0.1" x1="144.96810652" x2="147.13739352" y1="9.39322956" y2="9.39984372" /><line stroke="black" stroke-width="0.1" x1="147.13739352" x2="149.30731044" y1="9.39984372" y2="9.41086732" /><line stroke="black" stroke-width="0.1" x1="149.30731044" x2="151.47738484" y1="9.41086732" y2="9.42645784" /><line stroke="black" stroke-width="0.1" x1="151.47738484" x2="153.64730176" y1="9.42645784" y2="9.44614284" /><line stroke="black" stroke-width="0.1" x1="153.64730176" x2="155.81721868" y1="9.44614284" y2="9.47039476" /><line stroke="black" stroke-width="0.1" x1="155.81721868" x2="157.98760804" y1="9.47039476" y2="9.49889864" /><line stroke="black" stroke-width="0.1" x1="157.98760804" x2="160.15815488" y1="9.49889864" y2="9.531497" /><line stroke="black" stroke-width="0.1" x1="160.15815488" x2="162.32901668" y1="9.531497" y2="9.56803236" /><line stroke="black" stroke-width="0.1" x1="162.32901668" x2="164.50003596" y1="9.56803236" y2="9.60850472" /><line stroke="black" stroke-width="0.1" x1="164.50003596" x2="166.67089776" y1="9.60850472" y2="9.6527566" /><line stroke="black" stroke-width="0.1" x1="166.67089776" x2="168.84191704" y1="9.6527566" y2="9.70110296" /><line stroke="black" stroke-width="0.1" x1="168.84191704" x2="171.0138812" y1="9.70110296" y2="9.75259892" /><line stroke="black" stroke-width="0.1" x1="171.0138812" x2="173.18568788" y1="9.75259892" y2="9.80755944" /><line stroke="black" stroke-width="0.1" x1="173.18568788" x2="175.35654968" y1="9.80755944" y2="9.86598452" /><line stroke="black" stroke-width="0.1" x1="175.35654968" x2="177.5248918" y1="9.86598452" y2="9.92787416" /><line stroke="black" stroke-width="0.1" x1="177.5248918" x2="179.66315524" y1="9.92787416" y2="9.99196852" /><line stroke="black" stroke-width="0.1" x1="179.66315524" x2="181.56283648" y1="9.99196852" y2="10.04929124" /><line stroke="black" stroke-width="0.1" x1="181.56283648" x2="182.48" y1="10.04929124" y2="10.07464552" /><line stroke="black" stroke-width="0.1" x1="182.48" x2="202.48" y1="10.07464552" y2="10.07464552" /><line stroke="black" stroke-width="0.1" x1="202.48" x2="202.48" y1="10.07464552" y2="30.07464552" /><line stroke="black" stroke-width="0.1" x1="202.48" x2="10" y1="30.07464552" y2="30.07464552" /><line stroke="black" stroke-width="0.1" x1="10" x2="10" y1="30.07464552" y2="15.07464552" /><path d="M 25.19936968,10.44913296 C 20.19936968 5.44913296, 20.19936968 5.44913296, 10 5.44913296" fill-opacity="0.0" stroke="black" stroke-width="0.1" /><line stroke="black" stroke-width="0.1" x1="10" x2="10" y1="5.4491" y2="15.4491" /><line stroke="black" stroke-width="0.1" x1="141.84" x2="141.16069224" y1="49.94461784" y2="49.87813588" /><line stroke="black" stroke-width="0.1" x1="141.16069224" x2="139.75978064" y1="49.87813588" y2="49.73781104" /><line stroke="black" stroke-width="0.1" x1="139.75978064" x2="138.18477744" y1="49.73781104" y2="49.58393276" /><line stroke="black" stroke-width="0.1" x1="138.18477744" x2="136.5845368" y1="49.58393276" y2="49.43028816" /><line stroke="black" stroke-width="0.1" x1="136.5845368" x2="134.98254356" y1="49.43028816" y2="49.28049928" /><line stroke="black" stroke-width="0.1" x1="134.98254356" x2="133.37692828" y1="49.28049928" y2="49.13328088" /><line stroke="black" stroke-width="0.1" x1="133.37692828" x2="131.76967724" y1="49.13328088" y2="48.98769824" /><line stroke="black" stroke-width="0.1" x1="131.76967724" x2="130.16195884" y1="48.98769824" y2="48.84363452" /><line stroke="black" stroke-width="0.1" x1="130.16195884" x2="128.55447412" y1="48.84363452" y2="48.70120656" /><line stroke="black" stroke-width="0.1" x1="128.55447412" x2="126.9469894" y1="48.70120656" y2="48.56064804" /><line stroke="black" stroke-width="0.1" x1="126.9469894" x2="125.33973836" y1="48.56064804" y2="48.42184212" /><line stroke="black" stroke-width="0.1" x1="125.33973836" x2="123.73201996" y1="48.42184212" y2="48.28490564" /><line stroke="black" stroke-width="0.1" x1="123.73201996" x2="122.12348368" y1="48.28490564" y2="48.14960492" /><line stroke="black" stroke-width="0.1" x1="122.12348368" x2="120.51471372" y1="48.14960492" y2="48.01582312" /><line stroke="black" stroke-width="0.1" x1="120.51471372" x2="118.90559324" y1="48.01582312" y2="47.88332656" /><line stroke="black" stroke-width="0.1" x1="118.90559324" x2="117.2960054" y1="47.88332656" y2="47.75223208" /><line stroke="black" stroke-width="0.1" x1="117.2960054" x2="115.68641756" y1="47.75223208" y2="47.62218916" /><line stroke="black" stroke-width="0.1" x1="115.68641756" x2="114.07682972" y1="47.62218916" y2="47.49354832" /><line stroke="black" stroke-width="0.1" x1="114.07682972" x2="112.46712504" y1="47.49354832" y2="47.36630956" /><line stroke="black" stroke-width="0.1" x1="112.46712504" x2="110.8575372" y1="47.36630956" y2="47.24035604" /><line stroke="black" stroke-width="0.1" x1="110.8575372" x2="109.24794936" y1="47.24035604" y2="47.1158046" /><line stroke="black" stroke-width="0.1" x1="109.24794936" x2="107.63812784" y1="47.1158046" y2="46.99277208" /><line stroke="black" stroke-width="0.1" x1="107.63812784" x2="106.02865684" y1="46.99277208" y2="46.87125848" /><line stroke="black" stroke-width="0.1" x1="106.02865684" x2="104.41930268" y1="46.87125848" y2="46.7512638" /><line stroke="black" stroke-width="0.1" x1="104.41930268" x2="102.809598" y1="46.7512638" y2="46.63302172" /><line stroke="black" stroke-width="0.1" x1="102.809598" x2="101.20024384" y1="46.63302172" y2="46.5164154" /><line stroke="black" stroke-width="0.1" x1="101.20024384" x2="99.59112336" y1="46.5164154" y2="46.40179536" /><line stroke="black" stroke-width="0.1" x1="99.59112336" x2="97.98188604" y1="46.40179536" y2="46.28892792" /><line stroke="black" stroke-width="0.1" x1="97.98188604" x2="96.37276556" y1="46.28892792" y2="46.17828044" /><line stroke="black" stroke-width="0.1" x1="96.37276556" x2="94.76376192" y1="46.17828044" y2="46.06961924" /><line stroke="black" stroke-width="0.1" x1="94.76376192" x2="93.15487512" y1="46.06961924" y2="45.96329484" /><line stroke="black" stroke-width="0.1" x1="93.15487512" x2="91.546222" y1="45.96329484" y2="45.85930724" /><line stroke="black" stroke-width="0.1" x1="91.546222" x2="89.93768572" y1="45.85930724" y2="45.75777328" /><line stroke="black" stroke-width="0.1" x1="89.93768572" x2="88.32938312" y1="45.75777328" y2="45.65892664" /><line stroke="black" stroke-width="0.1" x1="88.32938312" x2="86.72096368" y1="45.65892664" y2="45.56276732" /><line stroke="black" stroke-width="0.1" x1="86.72096368" x2="85.1130116" y1="45.56276732" y2="45.469529" /><line stroke="black" stroke-width="0.1" x1="85.1130116" x2="83.5052932" y1="45.469529" y2="45.37932852" /><line stroke="black" stroke-width="0.1" x1="83.5052932" x2="81.89780848" y1="45.37932852" y2="45.2925164" /><line stroke="black" stroke-width="0.1" x1="81.89780848" x2="80.29067428" y1="45.2925164" y2="45.20885896" /><line stroke="black" stroke-width="0.1" x1="80.29067428" x2="78.68377376" y1="45.20885896" y2="45.12905724" /><line stroke="black" stroke-width="0.1" x1="78.68377376" x2="77.0773406" y1="45.12905724" y2="45.05311124" /><line stroke="black" stroke-width="0.1" x1="77.0773406" x2="75.4713748" y1="45.05311124" y2="44.98137148" /><line stroke="black" stroke-width="0.1" x1="75.4713748" x2="73.86575952" y1="44.98137148" y2="44.9139548" /><line stroke="black" stroke-width="0.1" x1="73.86575952" x2="72.26084528" y1="44.9139548" y2="44.85109488" /><line stroke="black" stroke-width="0.1" x1="72.26084528" x2="70.65616472" y1="44.85109488" y2="44.79337592" /><line stroke="black" stroke-width="0.1" x1="70.65616472" x2="69.05230204" y1="44.79337592" y2="44.74079792" /><line stroke="black" stroke-width="0.1" x1="69.05230204" x2="67.44902356" y1="44.74079792" y2="44.6937114" /><line stroke="black" stroke-width="0.1" x1="67.44902356" x2="65.84656296" y1="44.6937114" y2="44.65258372" /><line stroke="black" stroke-width="0.1" x1="65.84656296" x2="64.24468656" y1="44.65258372" y2="44.6177654" /><line stroke="black" stroke-width="0.1" x1="64.24468656" x2="62.64386172" y1="44.6177654" y2="44.58960696" /><line stroke="black" stroke-width="0.1" x1="62.64386172" x2="61.0439716" y1="44.58960696" y2="44.56857576" /><line stroke="black" stroke-width="0.1" x1="61.0439716" x2="59.44513304" y1="44.56857576" y2="44.55502232" /><line stroke="black" stroke-width="0.1" x1="59.44513304" x2="57.84769656" y1="44.55502232" y2="44.54964768" /><line stroke="black" stroke-width="0.1" x1="57.84769656" x2="56.25142848" y1="44.54964768" y2="44.55280236" /><line stroke="black" stroke-width="0.1" x1="56.25142848" x2="54.65679616" y1="44.55280236" y2="44.56507056" /><line stroke="black" stroke-width="0.1" x1="54.65679616" x2="53.06391644" y1="44.56507056" y2="44.58715332" /><line stroke="black" stroke-width="0.1" x1="53.06391644" x2="51.47325668" y1="44.58715332" y2="44.619518" /><line stroke="black" stroke-width="0.1" x1="51.47325668" x2="49.88481688" y1="44.619518" y2="44.663333" /><line stroke="black" stroke-width="0.1" x1="49.88481688" x2="48.29988228" y1="44.663333" y2="44.71929936" /><line stroke="black" stroke-width="0.1" x1="48.29988228" x2="46.71892024" y1="44.71929936" y2="44.78870232" /><line stroke="black" stroke-width="0.1" x1="46.71892024" x2="45.14216444" y1="44.78870232" y2="44.87294396" /><line stroke="black" stroke-width="0.1" x1="45.14216444" x2="43.57090012" y1="44.87294396" y2="44.97342636" /><line stroke="black" stroke-width="0.1" x1="43.57090012" x2="42.00571148" y1="44.97342636" y2="45.09178528" /><line stroke="black" stroke-width="0.1" x1="42.00571148" x2="40.4480006" y1="45.09178528" y2="45.230007" /><line stroke="black" stroke-width="0.1" x1="40.4480006" x2="38.8998706" y1="45.230007" y2="45.39042832" /><line stroke="black" stroke-width="0.1" x1="38.8998706" x2="37.36307408" y1="45.39042832" y2="45.57550288" /><line stroke="black" stroke-width="0.1" x1="37.36307408" x2="35.84146676" y1="45.57550288" y2="45.78826852" /><line stroke="black" stroke-width="0.1" x1="35.84146676" x2="34.33995592" y1="45.78826852" y2="46.03281464" /><line stroke="black" stroke-width="0.1" x1="34.33995592" x2="32.86461724" y1="46.03281464" y2="46.31381484" /><line stroke="black" stroke-width="0.1" x1="32.86461724" x2="31.42538212" y1="46.31381484" y2="46.63594272" /><line stroke="black" stroke-width="0.1" x1="31.42538212" x2="30.03942604" y1="46.63594272" y2="47.0053908" /><line stroke="black" stroke-width="0.1" x1="30.03942604" x2="28.73514112" y1="47.0053908" y2="47.42554744" /><line stroke="black" stroke-width="0.1" x1="28.73514112" x2="27.567559" y1="47.42554744" y2="47.89022012" /><line stroke="black" stroke-width="0.1" x1="27.567559" x2="26.62629596" y1="47.89022012" y2="48.36295476" /><line stroke="black" stroke-width="0.1" x1="26.62629596" x2="25.97234248" y1="48.36295476" y2="48.78089144" /><line stroke="black" stroke-width="0.1" x1="25.97234248" x2="25.557911" y1="48.78089144" y2="49.11774116" /><line stroke="black" stroke-width="0.1" x1="25.557911" x2="25.2973578" y1="49.11774116" y2="49.38916048" /><line stroke="black" stroke-width="0.1" x1="25.2973578" x2="25.13191236" y1="49.38916048" y2="49.61594692" /><line stroke="black" stroke-width="0.1" x1="25.13191236" x2="25.03481832" y1="49.61594692" y2="49.8142244" /><line stroke="black" stroke-width="0.1" x1="25.03481832" x2="25.0" y1="49.8142244" y2="49.99392432" /><line stroke="black" stroke-width="0.1" x1="141.84" x2="161.84" y1="49.94461784" y2="49.94461784" /><line stroke="black" stroke-width="0.1" x1="161.84" x2="161.84" y1="49.94461784" y2="69.94461784" /><line stroke="black" stroke-width="0.1" x1="161.84" x2="10" y1="69.94461784" y2="69.94461784" /><line stroke="black" stroke-width="0.1" x1="10" x2="10" y1="69.94461784" y2="54.94461784" /><path d="M 25.2973578,49.38916048 C 20.0 54.99392432, 20.0 54.99392432, 10 54.94461784" fill-opacity="0.0" stroke="black" stroke-width="0.1" /><line stroke="black" stroke-width="0.1" x1="25.0" x2="25.0327152" y1="49.99392432" y2="50.16638016" /><line stroke="black" stroke-width="0.1" x1="25.0327152" x2="25.14791944" y1="50.16638016" y2="50.33322768" /><line stroke="black" stroke-width="0.1" x1="25.14791944" x2="25.34561272" y1="50.33322768" y2="50.48558704" /><line stroke="black" stroke-width="0.1" x1="25.34561272" x2="25.63818008" y1="50.48558704" y2="50.63759588" /><line stroke="black" stroke-width="0.1" x1="25.63818008" x2="26.0772648" y1="50.63759588" y2="50.80549496" /><line stroke="black" stroke-width="0.1" x1="26.0772648" x2="26.76650396" y1="50.80549496" y2="50.9978136" /><line stroke="black" stroke-width="0.1" x1="26.76650396" x2="27.80404316" y1="50.9978136" y2="51.20204992" /><line stroke="black" stroke-width="0.1" x1="27.80404316" x2="29.12398464" y1="51.20204992" y2="51.37976356" /><line stroke="black" stroke-width="0.1" x1="29.12398464" x2="30.5779416" y1="51.37976356" y2="51.51261064" /><line stroke="black" stroke-width="0.1" x1="30.5779416" x2="32.08915016" y1="51.51261064" y2="51.60608264" /><line stroke="black" stroke-width="0.1" x1="32.08915016" x2="33.63085396" y1="51.60608264" y2="51.66754048" /><line stroke="black" stroke-width="0.1" x1="33.63085396" x2="35.1925374" y1="51.66754048" y2="51.7046956" /><line stroke="black" stroke-width="0.1" x1="35.1925374" x2="36.7675406" y1="51.7046956" y2="51.7228058" /><line stroke="black" stroke-width="0.1" x1="36.7675406" x2="38.35154048" y1="51.7228058" y2="51.72584364" /><line stroke="black" stroke-width="0.1" x1="38.35154048" x2="39.94161604" y1="51.72584364" y2="51.71661328" /><line stroke="black" stroke-width="0.1" x1="39.94161604" x2="41.53613152" y1="51.71661328" y2="51.69721784" /><line stroke="black" stroke-width="0.1" x1="41.53613152" x2="43.1341522" y1="51.69721784" y2="51.66894256" /><line stroke="black" stroke-width="0.1" x1="43.1341522" x2="44.73509388" y1="51.66894256" y2="51.63330636" /><line stroke="black" stroke-width="0.1" x1="44.73509388" x2="46.33825552" y1="51.63330636" y2="51.59124396" /><line stroke="black" stroke-width="0.1" x1="46.33825552" x2="47.94305292" y1="51.59124396" y2="51.54380692" /><line stroke="black" stroke-width="0.1" x1="47.94305292" x2="49.54948608" y1="51.54380692" y2="51.49157944" /><line stroke="black" stroke-width="0.1" x1="49.54948608" x2="51.15732132" y1="51.49157944" y2="51.43526256" /><line stroke="black" stroke-width="0.1" x1="51.15732132" x2="52.76632496" y1="51.43526256" y2="51.37544048" /><line stroke="black" stroke-width="0.1" x1="52.76632496" x2="54.376497" y1="51.37544048" y2="51.3126974" /><line stroke="black" stroke-width="0.1" x1="54.376497" x2="55.98760376" y1="51.3126974" y2="51.24750068" /><line stroke="black" stroke-width="0.1" x1="55.98760376" x2="57.59964524" y1="51.24750068" y2="51.180084" /><line stroke="black" stroke-width="0.1" x1="57.59964524" x2="59.21285512" y1="51.180084" y2="51.11103156" /><line stroke="black" stroke-width="0.1" x1="59.21285512" x2="60.82676604" y1="51.11103156" y2="51.04081072" /><line stroke="black" stroke-width="0.1" x1="60.82676604" x2="62.44172852" y1="51.04081072" y2="50.969772" /><line stroke="black" stroke-width="0.1" x1="62.44172852" x2="64.05750888" y1="50.969772" y2="50.89838276" /><line stroke="black" stroke-width="0.1" x1="64.05750888" x2="65.67363976" y1="50.89838276" y2="50.82687668" /><line stroke="black" stroke-width="0.1" x1="65.67363976" x2="67.28918644" y1="50.82687668" y2="50.75548744" /><line stroke="black" stroke-width="0.1" x1="67.28918644" x2="68.9043826" y1="50.75548744" y2="50.68456556" /><line stroke="black" stroke-width="0.1" x1="68.9043826" x2="70.51899456" y1="50.68456556" y2="50.61434472" /><line stroke="black" stroke-width="0.1" x1="70.51899456" x2="72.13313916" y1="50.61434472" y2="50.54482492" /><line stroke="black" stroke-width="0.1" x1="72.13313916" x2="73.74705008" y1="50.54482492" y2="50.47647352" /><line stroke="black" stroke-width="0.1" x1="73.74705008" x2="75.36061048" y1="50.47647352" y2="50.40917368" /><line stroke="black" stroke-width="0.1" x1="75.36061048" x2="76.97382036" y1="50.40917368" y2="50.34327592" /><line stroke="black" stroke-width="0.1" x1="76.97382036" x2="78.58667972" y1="50.34327592" y2="50.27889708" /><line stroke="black" stroke-width="0.1" x1="78.58667972" x2="80.19907172" y1="50.27889708" y2="50.21603716" /><line stroke="black" stroke-width="0.1" x1="80.19907172" x2="81.8111132" y1="50.21603716" y2="50.15516352" /><line stroke="black" stroke-width="0.1" x1="81.8111132" x2="83.42257048" y1="50.15516352" y2="50.096393" /><line stroke="black" stroke-width="0.1" x1="83.42257048" x2="85.03379408" y1="50.096393" y2="50.0397256" /><line stroke="black" stroke-width="0.1" x1="85.03379408" x2="86.64466716" y1="50.0397256" y2="49.98562868" /><line stroke="black" stroke-width="0.1" x1="86.64466716" x2="88.25507288" y1="49.98562868" y2="49.93421908" /><line stroke="black" stroke-width="0.1" x1="88.25507288" x2="89.86524492" y1="49.93421908" y2="49.88561364" /><line stroke="black" stroke-width="0.1" x1="89.86524492" x2="91.47518328" y1="49.88561364" y2="49.8399292" /><line stroke="black" stroke-width="0.1" x1="91.47518328" x2="93.08488796" y1="49.8399292" y2="49.79739944" /><line stroke="black" stroke-width="0.1" x1="93.08488796" x2="94.69435896" y1="49.79739944" y2="49.7581412" /><line stroke="black" stroke-width="0.1" x1="94.69435896" x2="96.30382996" y1="49.7581412" y2="49.72227132" /><line stroke="black" stroke-width="0.1" x1="96.30382996" x2="97.91330096" y1="49.72227132" y2="49.68955612" /><line stroke="black" stroke-width="0.1" x1="97.91330096" x2="99.52277196" y1="49.68955612" y2="49.66022928" /><line stroke="black" stroke-width="0.1" x1="99.52277196" x2="101.13224296" y1="49.66022928" y2="49.6342908" /><line stroke="black" stroke-width="0.1" x1="101.13224296" x2="102.7418308" y1="49.6342908" y2="49.61174068" /><line stroke="black" stroke-width="0.1" x1="102.7418308" x2="104.3513018" y1="49.61174068" y2="49.59257892" /><line stroke="black" stroke-width="0.1" x1="104.3513018" x2="105.96053912" y1="49.59257892" y2="49.57680552" /><line stroke="black" stroke-width="0.1" x1="105.96053912" x2="107.57012696" y1="49.57680552" y2="49.56453732" /><line stroke="black" stroke-width="0.1" x1="107.57012696" x2="109.17959796" y1="49.56453732" y2="49.55565748" /><line stroke="black" stroke-width="0.1" x1="109.17959796" x2="110.78930264" y1="49.55565748" y2="49.55028284" /><line stroke="black" stroke-width="0.1" x1="110.78930264" x2="112.39900732" y1="49.55028284" y2="49.54829656" /><line stroke="black" stroke-width="0.1" x1="112.39900732" x2="114.00859516" y1="49.54829656" y2="49.54981548" /><line stroke="black" stroke-width="0.1" x1="114.00859516" x2="115.61806616" y1="49.54981548" y2="49.55472276" /><line stroke="black" stroke-width="0.1" x1="115.61806616" x2="117.22800452" y1="49.55472276" y2="49.56290156" /><line stroke="black" stroke-width="0.1" x1="117.22800452" x2="118.83805972" y1="49.56290156" y2="49.57446872" /><line stroke="black" stroke-width="0.1" x1="118.83805972" x2="120.44799808" y1="49.57446872" y2="49.58907372" /><line stroke="black" stroke-width="0.1" x1="120.44799808" x2="122.05793644" y1="49.58907372" y2="49.60706708" /><line stroke="black" stroke-width="0.1" x1="122.05793644" x2="123.66822532" y1="49.60706708" y2="49.62821512" /><line stroke="black" stroke-width="0.1" x1="123.66822532" x2="125.27863104" y1="49.62821512" y2="49.652401" /><line stroke="black" stroke-width="0.1" x1="125.27863104" x2="126.88927044" y1="49.652401" y2="49.67950788" /><line stroke="black" stroke-width="0.1" x1="126.88927044" x2="128.50002668" y1="49.67950788" y2="49.70953576" /><line stroke="black" stroke-width="0.1" x1="128.50002668" x2="130.11066608" y1="49.70953576" y2="49.7423678" /><line stroke="black" stroke-width="0.1" x1="130.11066608" x2="131.72142232" y1="49.7423678" y2="49.77823768" /><line stroke="black" stroke-width="0.1" x1="131.72142232" x2="133.3328796" y1="49.77823768" y2="49.81644436" /><line stroke="black" stroke-width="0.1" x1="133.3328796" x2="134.94422004" y1="49.81644436" y2="49.85722152" /><line stroke="black" stroke-width="0.1" x1="134.94422004" x2="136.55485944" y1="49.85722152" y2="49.90056916" /><line stroke="black" stroke-width="0.1" x1="136.55485944" x2="138.1636294" y1="49.90056916" y2="49.94648728" /><line stroke="black" stroke-width="0.1" x1="138.1636294" x2="139.75008292" y1="49.94648728" y2="49.99404116" /><line stroke="black" stroke-width="0.1" x1="139.75008292" x2="141.15952384" y1="49.99404116" y2="50.03657092" /><line stroke="black" stroke-width="0.1" x1="141.15952384" x2="141.84" y1="50.03657092" y2="50.05538216" /><line stroke="black" stroke-width="0.1" x1="141.84" x2="161.84" y1="50.05538216" y2="50.05538216" /><line stroke="black" stroke-width="0.1" x1="161.84" x2="161.84" y1="50.05538216" y2="70.05538216" /><line stroke="black" stroke-width="0.1" x1="161.84" x2="10" y1="70.05538216" y2="70.05538216" /><line stroke="black" stroke-width="0.1" x1="10" x2="10" y1="70.05538216" y2="55.05538216" /><path d="M 25.14791944,50.33322768 C 20.14791944 45.33322768, 20.14791944 45.33322768, 10 45.33322768" fill-opacity="0.0" stroke="black" stroke-width="0.1" /><line stroke="black" stroke-width="0.1" x1="10" x2="10" y1="45.3332" y2="55.3332" /><line stroke="black" stroke-width="0.1" x1="85.96" x2="85.60417648" y1="89.97086112" y2="89.9356872" /><line stroke="black" stroke-width="0.1" x1="85.60417648" x2="84.87107152" y1="89.9356872" y2="89.86113312" /><line stroke="black" stroke-width="0.1" x1="84.87107152" x2="84.0513424" y1="89.86113312" y2="89.77981248" /><line stroke="black" stroke-width="0.1" x1="84.0513424" x2="83.22039664" y1="89.77981248" y2="89.69928432" /><line stroke="black" stroke-width="0.1" x1="83.22039664" x2="82.38878032" y1="89.69928432" y2="89.62131648" /><line stroke="black" stroke-width="0.1" x1="82.38878032" x2="81.5553352" y1="89.62131648" y2="89.5452384" /><line stroke="black" stroke-width="0.1" x1="81.5553352" x2="80.72134144" y1="89.5452384" y2="89.47062336" /><line stroke="black" stroke-width="0.1" x1="80.72134144" x2="79.88679904" y1="89.47062336" y2="89.39759328" /><line stroke="black" stroke-width="0.1" x1="79.88679904" x2="79.05146416" y1="89.39759328" y2="89.32572144" /><line stroke="black" stroke-width="0.1" x1="79.05146416" x2="78.21545872" y1="89.32572144" y2="89.254764" /><line stroke="black" stroke-width="0.1" x1="78.21545872" x2="77.3792704" y1="89.254764" y2="89.18466" /><line stroke="black" stroke-width="0.1" x1="77.3792704" x2="76.54271632" y1="89.18466" y2="89.11522656" /><line stroke="black" stroke-width="0.1" x1="76.54271632" x2="75.70616224" y1="89.11522656" y2="89.04652464" /><line stroke="black" stroke-width="0.1" x1="75.70616224" x2="74.86948624" y1="89.04652464" y2="88.97849328" /><line stroke="black" stroke-width="0.1" x1="74.86948624" x2="74.03262736" y1="88.97849328" y2="88.91113248" /><line stroke="black" stroke-width="0.1" x1="74.03262736" x2="73.1958904" y1="88.91113248" y2="88.84438128" /><line stroke="black" stroke-width="0.1" x1="73.1958904" x2="72.35903152" y1="88.84438128" y2="88.7783616" /><line stroke="black" stroke-width="0.1" x1="72.35903152" x2="71.5222336" y1="88.7783616" y2="88.71301248" /><line stroke="black" stroke-width="0.1" x1="71.5222336" x2="70.68537472" y1="88.71301248" y2="88.64833392" /><line stroke="black" stroke-width="0.1" x1="70.68537472" x2="69.84863776" y1="88.64833392" y2="88.58456976" /><line stroke="black" stroke-width="0.1" x1="69.84863776" x2="69.01183984" y1="88.58456976" y2="88.52147616" /><line stroke="black" stroke-width="0.1" x1="69.01183984" x2="68.17510288" y1="88.52147616" y2="88.45929696" /><line stroke="black" stroke-width="0.1" x1="68.17510288" x2="67.33836592" y1="88.45929696" y2="88.3979712" /><line stroke="black" stroke-width="0.1" x1="67.33836592" x2="66.50168992" y1="88.3979712" y2="88.33755984" /><line stroke="black" stroke-width="0.1" x1="66.50168992" x2="65.66501392" y1="88.33755984" y2="88.27806288" /><line stroke="black" stroke-width="0.1" x1="65.66501392" x2="64.82833792" y1="88.27806288" y2="88.21960224" /><line stroke="black" stroke-width="0.1" x1="64.82833792" x2="63.99172288" y1="88.21960224" y2="88.16211696" /><line stroke="black" stroke-width="0.1" x1="63.99172288" x2="63.15504688" y1="88.16211696" y2="88.10572896" /><line stroke="black" stroke-width="0.1" x1="63.15504688" x2="62.31843184" y1="88.10572896" y2="88.05037728" /><line stroke="black" stroke-width="0.1" x1="62.31843184" x2="61.48187776" y1="88.05037728" y2="87.99612288" /><line stroke="black" stroke-width="0.1" x1="61.48187776" x2="60.64526272" y1="87.99612288" y2="87.94314864" /><line stroke="black" stroke-width="0.1" x1="60.64526272" x2="59.80870864" y1="87.94314864" y2="87.89127168" /><line stroke="black" stroke-width="0.1" x1="59.80870864" x2="58.97215456" y1="87.89127168" y2="87.8407968" /><line stroke="black" stroke-width="0.1" x1="58.97215456" x2="58.1357224" y1="87.8407968" y2="87.79148016" /><line stroke="black" stroke-width="0.1" x1="58.1357224" x2="57.29929024" y1="87.79148016" y2="87.74362656" /><line stroke="black" stroke-width="0.1" x1="57.29929024" x2="56.46285808" y1="87.74362656" y2="87.69711408" /><line stroke="black" stroke-width="0.1" x1="56.46285808" x2="55.6266088" y1="87.69711408" y2="87.65218656" /><line stroke="black" stroke-width="0.1" x1="55.6266088" x2="54.79035952" y1="87.65218656" y2="87.60866112" /><line stroke="black" stroke-width="0.1" x1="54.79035952" x2="53.95429312" y1="87.60866112" y2="87.56684256" /><line stroke="black" stroke-width="0.1" x1="53.95429312" x2="53.11822672" y1="87.56684256" y2="87.52673088" /><line stroke="black" stroke-width="0.1" x1="53.11822672" x2="52.28240416" y1="87.52673088" y2="87.48832608" /><line stroke="black" stroke-width="0.1" x1="52.28240416" x2="51.44670352" y1="87.48832608" y2="87.45193296" /><line stroke="black" stroke-width="0.1" x1="51.44670352" x2="50.6111248" y1="87.45193296" y2="87.4174296" /><line stroke="black" stroke-width="0.1" x1="50.6111248" x2="49.77578992" y1="87.4174296" y2="87.3851208" /><line stroke="black" stroke-width="0.1" x1="49.77578992" x2="48.94075984" y1="87.3851208" y2="87.3549456" /><line stroke="black" stroke-width="0.1" x1="48.94075984" x2="48.1059736" y1="87.3549456" y2="87.32733072" /><line stroke="black" stroke-width="0.1" x1="48.1059736" x2="47.27155312" y1="87.32733072" y2="87.30215424" /><line stroke="black" stroke-width="0.1" x1="47.27155312" x2="46.43743744" y1="87.30215424" y2="87.27972096" /><line stroke="black" stroke-width="0.1" x1="46.43743744" x2="45.60374848" y1="87.27972096" y2="87.26027472" /><line stroke="black" stroke-width="0.1" x1="45.60374848" x2="44.7705472" y1="87.26027472" y2="87.24393744" /><line stroke="black" stroke-width="0.1" x1="44.7705472" x2="43.9378336" y1="87.24393744" y2="87.23107488" /><line stroke="black" stroke-width="0.1" x1="43.9378336" x2="43.10566864" y1="87.23107488" y2="87.221748" /><line stroke="black" stroke-width="0.1" x1="43.10566864" x2="42.2742352" y1="87.221748" y2="87.21638352" /><line stroke="black" stroke-width="0.1" x1="42.2742352" x2="41.44347232" y1="87.21638352" y2="87.21516432" /><line stroke="black" stroke-width="0.1" x1="41.44347232" x2="40.61350192" y1="87.21516432" y2="87.21845616" /><line stroke="black" stroke-width="0.1" x1="40.61350192" x2="39.78456784" y1="87.21845616" y2="87.22668576" /><line stroke="black" stroke-width="0.1" x1="39.78456784" x2="38.95667008" y1="87.22668576" y2="87.24009696" /><line stroke="black" stroke-width="0.1" x1="38.95667008" x2="38.13005248" y1="87.24009696" y2="87.25929936" /><line stroke="black" stroke-width="0.1" x1="38.13005248" x2="37.3050808" y1="87.25929936" y2="87.28465872" /><line stroke="black" stroke-width="0.1" x1="37.3050808" x2="36.48187696" y1="87.28465872" y2="87.31690656" /><line stroke="black" stroke-width="0.1" x1="36.48187696" x2="35.66080672" y1="87.31690656" y2="87.35665248" /><line stroke="black" stroke-width="0.1" x1="35.66080672" x2="34.84223584" y1="87.35665248" y2="87.40450608" /><line stroke="black" stroke-width="0.1" x1="34.84223584" x2="34.02671296" y1="87.40450608" y2="87.46156464" /><line stroke="black" stroke-width="0.1" x1="34.02671296" x2="33.21478672" y1="87.46156464" y2="87.52874256" /><line stroke="black" stroke-width="0.1" x1="33.21478672" x2="32.40718864" y1="87.52874256" y2="87.6070152" /><line stroke="black" stroke-width="0.1" x1="32.40718864" x2="31.60507696" y1="87.6070152" y2="87.69778464" /><line stroke="black" stroke-width="0.1" x1="31.60507696" x2="30.80997568" y1="87.69778464" y2="87.80251392" /><line stroke="black" stroke-width="0.1" x1="30.80997568" x2="30.02444512" y1="87.80251392" y2="87.92327568" /><line stroke="black" stroke-width="0.1" x1="30.02444512" x2="29.25141136" y1="87.92327568" y2="88.0623864" /><line stroke="black" stroke-width="0.1" x1="29.25141136" x2="28.4957512" y1="88.0623864" y2="88.22258928" /><line stroke="black" stroke-width="0.1" x1="28.4957512" x2="27.76557232" y1="88.22258928" y2="88.40699328" /><line stroke="black" stroke-width="0.1" x1="27.76557232" x2="27.07373728" y1="88.40699328" y2="88.61852448" /><line stroke="black" stroke-width="0.1" x1="27.07373728" x2="26.44499584" y1="88.61852448" y2="88.8563904" /><line stroke="black" stroke-width="0.1" x1="26.44499584" x2="25.92220288" y1="88.8563904" y2="89.10681408" /><line stroke="black" stroke-width="0.1" x1="25.92220288" x2="25.5483352" y1="89.10681408" y2="89.33626752" /><line stroke="black" stroke-width="0.1" x1="25.5483352" x2="25.31144464" y1="89.33626752" y2="89.52280512" /><line stroke="black" stroke-width="0.1" x1="25.31144464" x2="25.16483584" y1="89.52280512" y2="89.67148656" /><line stroke="black" stroke-width="0.1" x1="25.16483584" x2="25.07327392" y1="89.67148656" y2="89.79389424" /><line stroke="black" stroke-width="0.1" x1="25.07327392" x2="25.01969008" y1="89.79389424" y2="89.89959888" /><line stroke="black" stroke-width="0.1" x1="25.01969008" x2="25.00006096" y1="89.89959888" y2="89.99396496" /><line stroke="black" stroke-width="0.1" x1="85.96" x2="105.96" y1="89.97086112" y2="89.97086112" /><line stroke="black" stroke-width="0.1" x1="105.96" x2="105.96" y1="89.97086112" y2="109.97086112" /><line stroke="black" stroke-width="0.1" x1="105.96" x2="10" y1="109.97086112" y2="109.97086112" /><line stroke="black" stroke-width="0.1" x1="10" x2="10" y1="109.97086112" y2="94.97086112" /><path d="M 25.16483584,89.67148656 C 20.00006096 94.99396496, 20.00006096 94.99396496, 10 94.97086112" fill-opacity="0.0" stroke="black" stroke-width="0.1" /><line stroke="black" stroke-width="0.1" x1="25.00006096" x2="25.01652016" y1="89.99396496" y2="90.08449056" /><line stroke="black" stroke-width="0.1" x1="25.01652016" x2="25.07808976" y1="90.08449056" y2="90.17105376" /><line stroke="black" stroke-width="0.1" x1="25.07808976" x2="25.1850136" y1="90.17105376" y2="90.24755856" /><line stroke="black" stroke-width="0.1" x1="25.1850136" x2="25.344424" y1="90.24755856" y2="90.32132016" /><line stroke="black" stroke-width="0.1" x1="25.344424" x2="25.5870448" y1="90.32132016" y2="90.40105584" /><line stroke="black" stroke-width="0.1" x1="25.5870448" x2="25.97316544" y1="90.40105584" y2="90.48969168" /><line stroke="black" stroke-width="0.1" x1="25.97316544" x2="26.55094432" y1="90.48969168" y2="90.57741312" /><line stroke="black" stroke-width="0.1" x1="26.55094432" x2="27.26673664" y1="90.57741312" y2="90.64696848" /><line stroke="black" stroke-width="0.1" x1="27.26673664" x2="28.03934368" y1="90.64696848" y2="90.69329808" /><line stroke="black" stroke-width="0.1" x1="28.03934368" x2="28.835908" y1="90.69329808" y2="90.72066912" /><line stroke="black" stroke-width="0.1" x1="28.835908" x2="29.64600544" y1="90.72066912" y2="90.73383648" /><line stroke="black" stroke-width="0.1" x1="29.64600544" x2="30.46427152" y1="90.73383648" y2="90.7363968" /><line stroke="black" stroke-width="0.1" x1="30.46427152" x2="31.28759728" y1="90.7363968" y2="90.73066656" /><line stroke="black" stroke-width="0.1" x1="31.28759728" x2="32.11470256" y1="90.73066656" y2="90.7184136" /><line stroke="black" stroke-width="0.1" x1="32.11470256" x2="32.94467296" y1="90.7184136" y2="90.70091808" /><line stroke="black" stroke-width="0.1" x1="32.94467296" x2="33.776716" y1="90.70091808" y2="90.67927728" /><line stroke="black" stroke-width="0.1" x1="33.776716" x2="34.610344" y1="90.67927728" y2="90.65434464" /><line stroke="black" stroke-width="0.1" x1="34.610344" x2="35.44537408" y1="90.65434464" y2="90.6266688" /><line stroke="black" stroke-width="0.1" x1="35.44537408" x2="36.28144048" y1="90.6266688" y2="90.59685936" /><line stroke="black" stroke-width="0.1" x1="36.28144048" x2="37.11836032" y1="90.59685936" y2="90.56534304" /><line stroke="black" stroke-width="0.1" x1="37.11836032" x2="37.95619456" y1="90.56534304" y2="90.5324856" /><line stroke="black" stroke-width="0.1" x1="37.95619456" x2="38.79457744" y1="90.5324856" y2="90.4986528" /><line stroke="black" stroke-width="0.1" x1="38.79457744" x2="39.63356992" y1="90.4986528" y2="90.46414944" /><line stroke="black" stroke-width="0.1" x1="39.63356992" x2="40.47298912" y1="90.46414944" y2="90.42903648" /><line stroke="black" stroke-width="0.1" x1="40.47298912" x2="41.31271312" y1="90.42903648" y2="90.39374064" /><line stroke="black" stroke-width="0.1" x1="41.31271312" x2="42.15280288" y1="90.39374064" y2="90.35820096" /><line stroke="black" stroke-width="0.1" x1="42.15280288" x2="42.99289264" y1="90.35820096" y2="90.32272224" /><line stroke="black" stroke-width="0.1" x1="42.99289264" x2="43.83279952" y1="90.32272224" y2="90.28730448" /><line stroke="black" stroke-width="0.1" x1="43.83279952" x2="44.67246256" y1="90.28730448" y2="90.25219152" /><line stroke="black" stroke-width="0.1" x1="44.67246256" x2="45.5118208" y1="90.25219152" y2="90.21738336" /><line stroke="black" stroke-width="0.1" x1="45.5118208" x2="46.35099616" y1="90.21738336" y2="90.18300192" /><line stroke="black" stroke-width="0.1" x1="46.35099616" x2="47.18992768" y1="90.18300192" y2="90.14929104" /><line stroke="black" stroke-width="0.1" x1="47.18992768" x2="48.02861536" y1="90.14929104" y2="90.1161288" /><line stroke="black" stroke-width="0.1" x1="48.02861536" x2="48.8670592" y1="90.1161288" y2="90.08382" /><line stroke="black" stroke-width="0.1" x1="48.8670592" x2="49.70532016" y1="90.08382" y2="90.0524256" /><line stroke="black" stroke-width="0.1" x1="49.70532016" x2="50.54333728" y1="90.0524256" y2="90.02200656" /><line stroke="black" stroke-width="0.1" x1="50.54333728" x2="51.38117152" y1="90.02200656" y2="89.9926848" /><line stroke="black" stroke-width="0.1" x1="51.38117152" x2="52.21888384" y1="89.9926848" y2="89.9646432" /><line stroke="black" stroke-width="0.1" x1="52.21888384" x2="53.0565352" y1="89.9646432" y2="89.93769888" /><line stroke="black" stroke-width="0.1" x1="53.0565352" x2="53.8941256" y1="89.93769888" y2="89.91215664" /><line stroke="black" stroke-width="0.1" x1="53.8941256" x2="54.73159408" y1="89.91215664" y2="89.88795552" /><line stroke="black" stroke-width="0.1" x1="54.73159408" x2="55.56906256" y1="89.88795552" y2="89.86515648" /><line stroke="black" stroke-width="0.1" x1="55.56906256" x2="56.40647008" y1="89.86515648" y2="89.84375952" /><line stroke="black" stroke-width="0.1" x1="56.40647008" x2="57.2438776" y1="89.84375952" y2="89.82370368" /><line stroke="black" stroke-width="0.1" x1="57.2438776" x2="58.08128512" y1="89.82370368" y2="89.8052328" /><line stroke="black" stroke-width="0.1" x1="58.08128512" x2="58.91869264" y1="89.8052328" y2="89.788164" /><line stroke="black" stroke-width="0.1" x1="58.91869264" x2="59.75616112" y1="89.788164" y2="89.77255824" /><line stroke="black" stroke-width="0.1" x1="59.75616112" x2="60.59356864" y1="89.77255824" y2="89.75847648" /><line stroke="black" stroke-width="0.1" x1="60.59356864" x2="61.43103712" y1="89.75847648" y2="89.74585776" /><line stroke="black" stroke-width="0.1" x1="61.43103712" x2="62.2685056" y1="89.74585776" y2="89.73470208" /><line stroke="black" stroke-width="0.1" x1="62.2685056" x2="63.10603504" y1="89.73470208" y2="89.72513136" /><line stroke="black" stroke-width="0.1" x1="63.10603504" x2="63.94350352" y1="89.72513136" y2="89.71696272" /><line stroke="black" stroke-width="0.1" x1="63.94350352" x2="64.78109392" y1="89.71696272" y2="89.71031808" /><line stroke="black" stroke-width="0.1" x1="64.78109392" x2="65.61868432" y1="89.71031808" y2="89.70513648" /><line stroke="black" stroke-width="0.1" x1="65.61868432" x2="66.45627472" y1="89.70513648" y2="89.70135696" /><line stroke="black" stroke-width="0.1" x1="66.45627472" x2="67.29392608" y1="89.70135696" y2="89.6991624" /><line stroke="black" stroke-width="0.1" x1="67.29392608" x2="68.13151648" y1="89.6991624" y2="89.69830896" /><line stroke="black" stroke-width="0.1" x1="68.13151648" x2="68.9692288" y1="89.69830896" y2="89.69891856" /><line stroke="black" stroke-width="0.1" x1="68.9692288" x2="69.80688016" y1="89.69891856" y2="89.7009912" /><line stroke="black" stroke-width="0.1" x1="69.80688016" x2="70.64453152" y1="89.7009912" y2="89.70452688" /><line stroke="black" stroke-width="0.1" x1="70.64453152" x2="71.48218288" y1="89.70452688" y2="89.70940368" /><line stroke="black" stroke-width="0.1" x1="71.48218288" x2="72.31983424" y1="89.70940368" y2="89.71580448" /><line stroke="black" stroke-width="0.1" x1="72.31983424" x2="73.15736368" y1="89.71580448" y2="89.72360736" /><line stroke="black" stroke-width="0.1" x1="73.15736368" x2="73.99489312" y1="89.72360736" y2="89.73293424" /><line stroke="black" stroke-width="0.1" x1="73.99489312" x2="74.8323616" y1="89.73293424" y2="89.7436632" /><line stroke="black" stroke-width="0.1" x1="74.8323616" x2="75.66983008" y1="89.7436632" y2="89.75597712" /><line stroke="black" stroke-width="0.1" x1="75.66983008" x2="76.50717664" y1="89.75597712" y2="89.76981504" /><line stroke="black" stroke-width="0.1" x1="76.50717664" x2="77.34446224" y1="89.76981504" y2="89.785116" /><line stroke="black" stroke-width="0.1" x1="77.34446224" x2="78.18168688" y1="89.785116" y2="89.80200192" /><line stroke="black" stroke-width="0.1" x1="78.18168688" x2="79.01885056" y1="89.80200192" y2="89.82041184" /><line stroke="black" stroke-width="0.1" x1="79.01885056" x2="79.85595328" y1="89.82041184" y2="89.84046768" /><line stroke="black" stroke-width="0.1" x1="79.85595328" x2="80.693056" y1="89.84046768" y2="89.86198656" /><line stroke="black" stroke-width="0.1" x1="80.693056" x2="81.53009776" y1="89.86198656" y2="89.88515136" /><line stroke="black" stroke-width="0.1" x1="81.53009776" x2="82.36707856" y1="89.88515136" y2="89.90984016" /><line stroke="black" stroke-width="0.1" x1="82.36707856" x2="83.20405936" y1="89.90984016" y2="89.93617488" /><line stroke="black" stroke-width="0.1" x1="83.20405936" x2="84.04018672" y1="89.93617488" y2="89.96391168" /><line stroke="black" stroke-width="0.1" x1="84.04018672" x2="84.86625568" y1="89.96391168" y2="89.99262384" /><line stroke="black" stroke-width="0.1" x1="84.86625568" x2="85.6036888" y1="89.99262384" y2="90.0179832" /><line stroke="black" stroke-width="0.1" x1="85.6036888" x2="85.96" y1="90.0179832" y2="90.02913888" /><line stroke="black" stroke-width="0.1" x1="85.96" x2="105.96" y1="90.02913888" y2="90.02913888" /><line stroke="black" stroke-width="0.1" x1="105.96" x2="105.96" y1="90.02913888" y2="110.02913888" /><line stroke="black" stroke-width="0.1" x1="105.96" x2="10" y1="110.02913888" y2="110.02913888" /><line stroke="black" stroke-width="0.1" x1="10" x2="10" y1="110.02913888" y2="95.02913888" /><path d="M 25.07808976,90.17105376 C 20.07808976 85.17105376, 20.07808976 85.17105376, 10 85.17105376" fill-opacity="0.0" stroke="black" stroke-width="0.1" /><line stroke="black" stroke-width="0.1" x1="10" x2="10" y1="85.1711" y2="95.1711" /></svg>