<?xml version="1.0" encoding="utf-8" ?>
<svg baseProfile="tiny" height="210mm" version="1.2" viewBox="0 0 297 210" width="297mm" xmlns="http://www.w3.org/2000/svg" xmlns:ev="http://www.w3.org/2001/xml-events" xmlns:xlink="http://www.w3.org/1999/xlink"><defs /><line stroke="black" stroke-width="0.1" x1="85.96" x2="85.60417648" y1="9.97086112" y2="9.9356872" /><line stroke="black" stroke-width="0.1" x1="85.60417648" x2="84.87107152" y1="9.9356872" y2="9.86113312" /><line stroke="black" stroke-width="0.1" x1="84.87107152" x2="84.0513424" y1="9.86113312" y2="9.77981248" /><line stroke="black" stroke-width="0.1" x1="84.0513424" x2="83.22039664" y1="9.77981248" y2="9.69928432" /><line stroke="black" stroke-width="0.1" x1="83.22039664" x2="82.38878032" y1="9.69928432" y2="9.62131648" /><line stroke="black" stroke-width="0.1" x1="82.38878032" x2="81.5553352" y1="9.62131648" y2="9.5452384" /><line stroke="black" stroke-width="0.1" x1="81.5553352" x2="80.72134144" y1="9.5452384" y2="9.47062336" /><line stroke="black" stroke-width="0.1" x1="80.72134144" x2="79.88679904" y1="9.47062336" y2="9.39759328" /><line stroke="black" stroke-width="0.1" x1="79.88679904" x2="79.05146416" y1="9.39759328" y2="9.32572144" /><line stroke="black" stroke-width="0.1" x1="79.05146416" x2="78.21545872" y1="9.32572144" y2="9.254764" /><line stroke="black" stroke-width="0.1" x1="78.21545872" x2="77.3792704" y1="9.254764" y2="9.18466" /><line stroke="black" stroke-width="0.1" x1="77.3792704" x2="76.54271632" y1="9.18466" y2="9.11522656" /><line stroke="black" stroke-width="0.1" x1="76.54271632" x2="75.70616224" y1="9.11522656" y2="9.04652464" /><line stroke="black" stroke-width="0.1" x1="75.70616224" x2="74.86948624" y1="9.04652464" y2="8.97849328" /><line stroke="black" stroke-width="0.1" x1="74.86948624" x2="74.03262736" y1="8.97849328" y2="8.91113248" /><line stroke="black" stroke-width="0.1" x1="74.03262736" x2="73.1958904" y1="8.91113248" y2="8.84438128" /><line stroke="black" stroke-width="0.1" x1="73.1958904" x2="72.35903152" y1="8.84438128" y2="8.7783616" /><line stroke="black" stroke-width="0.1" x1="72.35903152" x2="71.5222336" y1="8.7783616" y2="8.71301248" /><line stroke="black" stroke-width="0.1" x1="71.5222336" x2="70.68537472" y1="8.71301248" y2="8.64833392" /><line stroke="black" stroke-width="0.1" x1="70.68537472" x2="69.84863776" y1="8.64833392" y2="8.58456976" /><line stroke="black" stroke-width="0.1" x1="69.84863776" x2="69.01183984" y1="8.58456976" y2="8.52147616" /><line stroke="black" stroke-width="0.1" x1="69.01183984" x2="68.17510288" y1="8.52147616" y2="8.45929696" /><line stroke="black" stroke-width="0.1" x1="68.17510288" x2="67.33836592" y1="8.45929696" y2="8.3979712" /><line stroke="black" stroke-width="0.1" x1="67.33836592" x2="66.50168992" y1="8.3979712" y2="8.33755984" /><line stroke="black" stroke-width="0.1" x1="66.50168992" x2="65.66501392" y1="8.33755984" y2="8.27806288" /><line stroke="black" stroke-width="0.1" x1="65.66501392" x2="64.82833792" y1="8.27806288" y2="8.21960224" /><line stroke="black" stroke-width="0.1" x1="64.82833792" x2="63.99172288" y1="8.21960224" y2="8.16211696" /><line stroke="black" stroke-width="0.1" x1="63.99172288" x2="63.15504688" y1="8.16211696" y2="8.10572896" /><line stroke="black" stroke-width="0.1" x1="63.15504688" x2="62.31843184" y1="8.10572896" y2="8.05037728" /><line stroke="black" stroke-width="0.1" x1="62.31843184" x2="61.48187776" y1="8.05037728" y2="7.99612288" /><line stroke="black" stroke-width="0.1" x1="61.48187776" x2="60.64526272" y1="7.99612288" y2="7.94314864" /><line stroke="black" stroke-width="0.1" x1="60.64526272" x2="59.80870864" y1="7.94314864" y2="7.89127168" /><line stroke="black" stroke-width="0.1" x1="59.80870864" x2="58.97215456" y1="7.89127168" y2="7.8407968" /><line stroke="black" stroke-width="0.1" x1="58.97215456" x2="58.1357224" y1="7.8407968" y2="7.79148016" /><line stroke="black" stroke-width="0.1" x1="58.1357224" x2="57.29929024" y1="7.79148016" y2="7.74362656" /><line stroke="black" stroke-width="0.1" x1="57.29929024" x2="56.46285808" y1="7.74362656" y2="7.69711408" /><line stroke="black" stroke-width="0.1" x1="56.46285808" x2="55.6266088" y1="7.69711408" y2="7.65218656" /><line stroke="black" stroke-width="0.1" x1="55.6266088" x2="54.79035952" y1="7.65218656" y2="7.60866112" /><line stroke="black" stroke-width="0.1" x1="54.79035952" x2="53.95429312" y1="7.60866112" y2="7.56684256" /><line stroke="black" stroke-width="0.1" x1="53.95429312" x2="53.11822672" y1="7.56684256" y2="7.52673088" /><line stroke="black" stroke-width="0.1" x1="53.11822672" x2="52.28240416" y1="7.52673088" y2="7.48832608" /><line stroke="black" stroke-width="0.1" x1="52.28240416" x2="51.44670352" y1="7.48832608" y2="7.45193296" /><line stroke="black" stroke-width="0.1" x1="51.44670352" x2="50.6111248" y1="7.45193296" y2="7.4174296" /><line stroke="black" stroke-width="0.1" x1="50.6111248" x2="49.77578992" y1="7.4174296" y2="7.3851208" /><line stroke="black" stroke-width="0.1" x1="49.77578992" x2="48.94075984" y1="7.3851208" y2="7.3549456" /><line stroke="black" stroke-width="0.1" x1="48.94075984" x2="48.1059736" y1="7.3549456" y2="7.32733072" /><line stroke="black" stroke-width="0.1" x1="48.1059736" x2="47.27155312" y1="7.32733072" y2="7.30215424" /><line stroke="black" stroke-width="0.1" x1="47.27155312" x2="46.43743744" y1="7.30215424" y2="7.27972096" /><line stroke="black" stroke-width="0.1" x1="46.43743744" x2="45.60374848" y1="7.27972096" y2="7.26027472" /><line stroke="black" stroke-width="0.1" x1="45.60374848" x2="44.7705472" y1="7.26027472" y2="7.24393744" /><line stroke="black" stroke-width="0.1" x1="44.7705472" x2="43.9378336" y1="7.24393744" y2="7.23107488" /><line stroke="black" stroke-width="0.1" x1="43.9378336" x2="43.10566864" y1="7.23107488" y2="7.221748" /><line stroke="black" stroke-width="0.1" x1="43.10566864" x2="42.2742352" y1="7.221748" y2="7.21638352" /><line stroke="black" stroke-width="0.1" x1="42.2742352" x2="41.44347232" y1="7.21638352" y2="7.21516432" /><line stroke="black" stroke-width="0.1" x1="41.44347232" x2="40.61350192" y1="7.21516432" y2="7.21845616" /><line stroke="black" stroke-width="0.1" x1="40.61350192" x2="39.78456784" y1="7.21845616" y2="7.22668576" /><line stroke="black" stroke-width="0.1" x1="39.78456784" x2="38.95667008" y1="7.22668576" y2="7.24009696" /><line stroke="black" stroke-width="0.1" x1="38.95667008" x2="38.13005248" y1="7.24009696" y2="7.25929936" /><line stroke="black" stroke-width="0.1" x1="38.13005248" x2="37.3050808" y1="7.25929936" y2="7.28465872" /><line stroke="black" stroke-width="0.1" x1="37.3050808" x2="36.48187696" y1="7.28465872" y2="7.31690656" /><line stroke="black" stroke-width="0.1" x1="36.48187696" x2="35.66080672" y1="7.31690656" y2="7.35665248" /><line stroke="black" stroke-width="0.1" x1="35.66080672" x2="34.84223584" y1="7.35665248" y2="7.40450608" /><line stroke="black" stroke-width="0.1" x1="34.84223584" x2="34.02671296" y1="7.40450608" y2="7.46156464" /><line stroke="black" stroke-width="0.1" x1="34.02671296" x2="33.21478672" y1="7.46156464" y2="7.52874256" /><line stroke="black" stroke-width="0.1" x1="33.21478672" x2="32.40718864" y1="7.52874256" y2="7.6070152" /><line stroke="black" stroke-width="0.1" x1="32.40718864" x2="31.60507696" y1="7.6070152" y2="7.69778464" /><line stroke="black" stroke-width="0.1" x1="31.60507696" x2="30.80997568" y1="7.69778464" y2="7.80251392" /><line stroke="black" stroke-width="0.1" x1="30.80997568" x2="30.02444512" y1="7.80251392" y2="7.92327568" /><line stroke="black" stroke-width="0.1" x1="30.02444512" x2="29.25141136" y1="7.92327568" y2="8.0623864" /><line stroke="black" stroke-width="0.1" x1="29.25141136" x2="28.4957512" y1="8.0623864" y2="8.22258928" /><line stroke="black" stroke-width="0.1" x1="28.4957512" x2="27.76557232" y1="8.22258928" y2="8.40699328" /><line stroke="black" stroke-width="0.1" x1="27.76557232" x2="27.07373728" y1="8.40699328" y2="8.61852448" /><line stroke="black" stroke-width="0.1" x1="27.07373728" x2="26.44499584" y1="8.61852448" y2="8.8563904" /><line stroke="black" stroke-width="0.1" x1="26.44499584" x2="25.92220288" y1="8.8563904" y2="9.10681408" /><line stroke="black" stroke-width="0.1" x1="25.92220288" x2="25.5483352" y1="9.10681408" y2="9.33626752" /><line stroke="black" stroke-width="0.1" x1="25.5483352" x2="25.31144464" y1="9.33626752" y2="9.52280512" /><line stroke="black" stroke-width="0.1" x1="25.31144464" x2="25.16483584" y1="9.52280512" y2="9.67148656" /><line stroke="black" stroke-width="0.1" x1="25.16483584" x2="25.07327392" y1="9.67148656" y2="9.79389424" /><line stroke="black" stroke-width="0.1" x1="25.07327392" x2="25.01969008" y1="9.79389424" y2="9.89959888" /><line stroke="black" stroke-width="0.1" x1="25.01969008" x2="25.00006096" y1="9.89959888" y2="9.99396496" /><line stroke="black" stroke-width="0.1" x1="85.96" x2="105.96" y1="9.97086112" y2="9.97086112" /><line stroke="black" stroke-width="0.1" x1="105.96" x2="105.96" y1="9.97086112" y2="19.97086112" /><line stroke="black" stroke-width="0.1" x1="105.96" x2="10" y1="19.97086112" y2="19.97086112" /><line stroke="black" stroke-width="0.1" x1="10" x2="10" y1="19.97086112" y2="14.97086112" /><path d="M 25.00006096,9.99396496 C 20.00006096 14.99396496, 20.00006096 14.99396496, 10 14.97086112" fill-opacity="0.0" stroke="black" stroke-width="0.1" /><line stroke="black" stroke-width="0.1" x1="25.00006096" x2="25.01652016" y1="39.99396496" y2="40.08449056" /><line stroke="black" stroke-width="0.1" x1="25.01652016" x2="25.07808976" y1="40.08449056" y2="40.17105376" /><line stroke="black" stroke-width="0.1" x1="25.07808976" x2="25.1850136" y1="40.17105376" y2="40.24755856" /><line stroke="black" stroke-width="0.1" x1="25.1850136" x2="25.344424" y1="40.24755856" y2="40.32132016" /><line stroke="black" stroke-width="0.1" x1="25.344424" x2="25.5870448" y1="40.32132016" y2="40.40105584" /><line stroke="black" stroke-width="0.1" x1="25.5870448" x2="25.97316544" y1="40.40105584" y2="40.48969168" /><line stroke="black" stroke-width="0.1" x1="25.97316544" x2="26.55094432" y1="40.48969168" y2="40.57741312" /><line stroke="black" stroke-width="0.1" x1="26.55094432" x2="27.26673664" y1="40.57741312" y2="40.64696848" /><line stroke="black" stroke-width="0.1" x1="27.26673664" x2="28.03934368" y1="40.64696848" y2="40.69329808" /><line stroke="black" stroke-width="0.1" x1="28.03934368" x2="28.835908" y1="40.69329808" y2="40.72066912" /><line stroke="black" stroke-width="0.1" x1="28.835908" x2="29.64600544" y1="40.72066912" y2="40.73383648" /><line stroke="black" stroke-width="0.1" x1="29.64600544" x2="30.46427152" y1="40.73383648" y2="40.7363968" /><line stroke="black" stroke-width="0.1" x1="30.46427152" x2="31.28759728" y1="40.7363968" y2="40.73066656" /><line stroke="black" stroke-width="0.1" x1="31.28759728" x2="32.11470256" y1="40.73066656" y2="40.7184136" /><line stroke="black" stroke-width="0.1" x1="32.11470256" x2="32.94467296" y1="40.7184136" y2="40.70091808" /><line stroke="black" stroke-width="0.1" x1="32.94467296" x2="33.776716" y1="40.70091808" y2="40.67927728" /><line stroke="black" stroke-width="0.1" x1="33.776716" x2="34.610344" y1="40.67927728" y2="40.65434464" /><line stroke="black" stroke-width="0.1" x1="34.610344" x2="35.44537408" y1="40.65434464" y2="40.6266688" /><line stroke="black" stroke-width="0.1" x1="35.44537408" x2="36.28144048" y1="40.6266688" y2="40.59685936" /><line stroke="black" stroke-width="0.1" x1="36.28144048" x2="37.11836032" y1="40.59685936" y2="40.56534304" /><line stroke="black" stroke-width="0.1" x1="37.11836032" x2="37.95619456" y1="40.56534304" y2="40.5324856" /><line stroke="black" stroke-width="0.1" x1="37.95619456" x2="38.79457744" y1="40.5324856" y2="40.4986528" /><line stroke="black" stroke-width="0.1" x1="38.79457744" x2="39.63356992" y1="40.4986528" y2="40.46414944" /><line stroke="black" stroke-width="0.1" x1="39.63356992" x2="40.47298912" y1="40.46414944" y2="40.42903648" /><line stroke="black" stroke-width="0.1" x1="40.47298912" x2="41.31271312" y1="40.42903648" y2="40.39374064" /><line stroke="black" stroke-width="0.1" x1="41.31271312" x2="42.15280288" y1="40.39374064" y2="40.35820096" /><line stroke="black" stroke-width="0.1" x1="42.15280288" x2="42.99289264" y1="40.35820096" y2="40.32272224" /><line stroke="black" stroke-width="0.1" x1="42.99289264" x2="43.83279952" y1="40.32272224" y2="40.28730448" /><line stroke="black" stroke-width="0.1" x1="43.83279952" x2="44.67246256" y1="40.28730448" y2="40.25219152" /><line stroke="black" stroke-width="0.1" x1="44.67246256" x2="45.5118208" y1="40.25219152" y2="40.21738336" /><line stroke="black" stroke-width="0.1" x1="45.5118208" x2="46.35099616" y1="40.21738336" y2="40.18300192" /><line stroke="black" stroke-width="0.1" x1="46.35099616" x2="47.18992768" y1="40.18300192" y2="40.14929104" /><line stroke="black" stroke-width="0.1" x1="47.18992768" x2="48.02861536" y1="40.14929104" y2="40.1161288" /><line stroke="black" stroke-width="0.1" x1="48.02861536" x2="48.8670592" y1="40.1161288" y2="40.08382" /><line stroke="black" stroke-width="0.1" x1="48.8670592" x2="49.70532016" y1="40.08382" y2="40.0524256" /><line stroke="black" stroke-width="0.1" x1="49.70532016" x2="50.54333728" y1="40.0524256" y2="40.02200656" /><line stroke="black" stroke-width="0.1" x1="50.54333728" x2="51.38117152" y1="40.02200656" y2="39.9926848" /><line stroke="black" stroke-width="0.1" x1="51.38117152" x2="52.21888384" y1="39.9926848" y2="39.9646432" /><line stroke="black" stroke-width="0.1" x1="52.21888384" x2="53.0565352" y1="39.9646432" y2="39.93769888" /><line stroke="black" stroke-width="0.1" x1="53.0565352" x2="53.8941256" y1="39.93769888" y2="39.91215664" /><line stroke="black" stroke-width="0.1" x1="53.8941256" x2="54.73159408" y1="39.91215664" y2="39.88795552" /><line stroke="black" stroke-width="0.1" x1="54.73159408" x2="55.56906256" y1="39.88795552" y2="39.86515648" /><line stroke="black" stroke-width="0.1" x1="55.56906256" x2="56.40647008" y1="39.86515648" y2="39.84375952" /><line stroke="black" stroke-width="0.1" x1="56.40647008" x2="57.2438776" y1="39.84375952" y2="39.82370368" /><line stroke="black" stroke-width="0.1" x1="57.2438776" x2="58.08128512" y1="39.82370368" y2="39.8052328" /><line stroke="black" stroke-width="0.1" x1="58.08128512" x2="58.91869264" y1="39.8052328" y2="39.788164" /><line stroke="black" stroke-width="0.1" x1="58.91869264" x2="59.75616112" y1="39.788164" y2="39.77255824" /><line stroke="black" stroke-width="0.1" x1="59.75616112" x2="60.59356864" y1="39.77255824" y2="39.75847648" /><line stroke="black" stroke-width="0.1" x1="60.59356864" x2="61.43103712" y1="39.75847648" y2="39.74585776" /><line stroke="black" stroke-width="0.1" x1="61.43103712" x2="62.2685056" y1="39.74585776" y2="39.73470208" /><line stroke="black" stroke-width="0.1" x1="62.2685056" x2="63.10603504" y1="39.73470208" y2="39.72513136" /><line stroke="black" stroke-width="0.1" x1="63.10603504" x2="63.94350352" y1="39.72513136" y2="39.71696272" /><line stroke="black" stroke-width="0.1" x1="63.94350352" x2="64.78109392" y1="39.71696272" y2="39.71031808" /><line stroke="black" stroke-width="0.1" x1="64.78109392" x2="65.61868432" y1="39.71031808" y2="39.70513648" /><line stroke="black" stroke-width="0.1" x1="65.61868432" x2="66.45627472" y1="39.70513648" y2="39.70135696" /><line stroke="black" stroke-width="0.1" x1="66.45627472" x2="67.29392608" y1="39.70135696" y2="39.6991624" /><line stroke="black" stroke-width="0.1" x1="67.29392608" x2="68.13151648" y1="39.6991624" y2="39.69830896" /><line stroke="black" stroke-width="0.1" x1="68.13151648" x2="68.9692288" y1="39.69830896" y2="39.69891856" /><line stroke="black" stroke-width="0.1" x1="68.9692288" x2="69.80688016" y1="39.69891856" y2="39.7009912" /><line stroke="black" stroke-width="0.1" x1="69.80688016" x2="70.64453152" y1="39.7009912" y2="39.70452688" /><line stroke="black" stroke-width="0.1" x1="70.64453152" x2="71.48218288" y1="39.70452688" y2="39.70940368" /><line stroke="black" stroke-width="0.1" x1="71.48218288" x2="72.31983424" y1="39.70940368" y2="39.71580448" /><line stroke="black" stroke-width="0.1" x1="72.31983424" x2="73.15736368" y1="39.71580448" y2="39.72360736" /><line stroke="black" stroke-width="0.1" x1="73.15736368" x2="73.99489312" y1="39.72360736" y2="39.73293424" /><line stroke="black" stroke-width="0.1" x1="73.99489312" x2="74.8323616" y1="39.73293424" y2="39.7436632" /><line stroke="black" stroke-width="0.1" x1="74.8323616" x2="75.66983008" y1="39.7436632" y2="39.75597712" /><line stroke="black" stroke-width="0.1" x1="75.66983008" x2="76.50717664" y1="39.75597712" y2="39.76981504" /><line stroke="black" stroke-width="0.1" x1="76.50717664" x2="77.34446224" y1="39.76981504" y2="39.785116" /><line stroke="black" stroke-width="0.1" x1="77.34446224" x2="78.18168688" y1="39.785116" y2="39.80200192" /><line stroke="black" stroke-width="0.1" x1="78.18168688" x2="79.01885056" y1="39.80200192" y2="39.82041184" /><line stroke="black" stroke-width="0.1" x1="79.01885056" x2="79.85595328" y1="39.82041184" y2="39.84046768" /><line stroke="black" stroke-width="0.1" x1="79.85595328" x2="80.693056" y1="39.84046768" y2="39.86198656" /><line stroke="black" stroke-width="0.1" x1="80.693056" x2="81.53009776" y1="39.86198656" y2="39.88515136" /><line stroke="black" stroke-width="0.1" x1="81.53009776" x2="82.36707856" y1="39.88515136" y2="39.90984016" /><line stroke="black" stroke-width="0.1" x1="82.36707856" x2="83.20405936" y1="39.90984016" y2="39.93617488" /><line stroke="black" stroke-width="0.1" x1="83.20405936" x2="84.04018672" y1="39.93617488" y2="39.96391168" /><line stroke="black" stroke-width="0.1" x1="84.04018672" x2="84.86625568" y1="39.96391168" y2="39.99262384" /><line stroke="black" stroke-width="0.1" x1="84.86625568" x2="85.6036888" y1="39.99262384" y2="40.0179832" /><line stroke="black" stroke-width="0.1" x1="85.6036888" x2="85.96" y1="40.0179832" y2="40.02913888" /><line stroke="black" stroke-width="0.1" x1="85.96" x2="105.96" y1="40.02913888" y2="40.02913888" /><line stroke="black" stroke-width="0.1" x1="105.96" x2="105.96" y1="40.02913888" y2="50.02913888" /><line stroke="black" stroke-width="0.1" x1="105.96" x2="10" y1="50.02913888" y2="50.02913888" /><line stroke="black" stroke-width="0.1" x1="10" x2="10" y1="50.02913888" y2="45.02913888" /><path d="M 25.00006096,39.99396496 C 20.00006096 34.99396496, 20.00006096 34.99396496, 10 34.99396496" fill-opacity="0.0" stroke="black" stroke-width="0.1" /><line stroke="black" stroke-width="0.1" x1="10" x2="10" y1="34.994" y2="44.994" /></svg>